<svg width="96" height="17" viewBox="0 0 96 17" fill="none" xmlns="http://www.w3.org/2000/svg">
<path d="M5.58537 1.19512V1.85366H4.92683V1.19512H5.58537ZM5.58537 1.85366V2.5122H4.92683V1.85366H5.58537ZM5.58537 2.5122V3.17073H4.92683V2.5122H5.58537ZM5.58537 3.17073V3.82927H4.92683V3.17073H5.58537ZM5.58537 3.82927V4.48781H4.92683V3.82927H5.58537ZM4.92683 3.82927V4.48781H4.26829V3.82927H4.92683ZM4.92683 4.48781V5.14634H4.26829V4.48781H4.92683ZM4.92683 5.14634V5.80488H4.26829V5.14634H4.92683ZM4.26829 5.14634V5.80488H3.60976V5.14634H4.26829ZM3.60976 5.14634V5.80488H2.95122V5.14634H3.60976ZM2.95122 5.14634V5.80488H2.29268V5.14634H2.95122ZM2.29268 5.14634V5.80488H1.63415V5.14634H2.29268ZM2.29268 5.80488V6.46342H1.63415V5.80488H2.29268ZM2.29268 6.46342V7.12195H1.63415V6.46342H2.29268ZM2.95122 6.46342V7.12195H2.29268V6.46342H2.95122ZM3.60976 6.46342V7.12195H2.95122V6.46342H3.60976ZM4.26829 6.46342V7.12195H3.60976V6.46342H4.26829ZM4.92683 6.46342V7.12195H4.26829V6.46342H4.92683ZM4.92683 5.80488V6.46342H4.26829V5.80488H4.92683ZM3.60976 5.80488V6.46342H2.95122V5.80488H3.60976ZM2.95122 5.80488V6.46342H2.29268V5.80488H2.95122ZM4.26829 5.80488V6.46342H3.60976V5.80488H4.26829ZM4.92683 7.12195V7.78049H4.26829V7.12195H4.92683ZM4.26829 7.12195V7.78049H3.60976V7.12195H4.26829ZM4.26829 7.78049V8.43902H3.60976V7.78049H4.26829ZM4.92683 7.78049V8.43902H4.26829V7.78049H4.92683ZM4.92683 8.43902V9.09756H4.26829V8.43902H4.92683ZM4.26829 8.43902V9.09756H3.60976V8.43902H4.26829ZM4.26829 9.09756V9.7561H3.60976V9.09756H4.26829ZM4.26829 9.7561V10.4146H3.60976V9.7561H4.26829ZM3.60976 9.09756V9.7561H2.95122V9.09756H3.60976ZM3.60976 9.7561V10.4146H2.95122V9.7561H3.60976ZM3.60976 10.4146V11.0732H2.95122V10.4146H3.60976ZM3.60976 11.0732V11.7317H2.95122V11.0732H3.60976ZM2.95122 11.0732V11.7317H2.29268V11.0732H2.95122ZM2.29268 11.0732V11.7317H1.63415V11.0732H2.29268ZM1.63415 11.0732V11.7317H0.97561V11.0732H1.63415ZM0.97561 11.0732V11.7317H0.317073V11.0732H0.97561ZM0.97561 11.7317V12.3902H0.317073V11.7317H0.97561ZM0.97561 12.3902V13.0488H0.317073V12.3902H0.97561ZM1.63415 12.3902V13.0488H0.97561V12.3902H1.63415ZM2.29268 12.3902V13.0488H1.63415V12.3902H2.29268ZM2.95122 12.3902V13.0488H2.29268V12.3902H2.95122ZM3.60976 12.3902V13.0488H2.95122V12.3902H3.60976ZM3.60976 11.7317V12.3902H2.95122V11.7317H3.60976ZM2.95122 11.7317V12.3902H2.29268V11.7317H2.95122ZM2.29268 11.7317V12.3902H1.63415V11.7317H2.29268ZM1.63415 11.7317V12.3902H0.97561V11.7317H1.63415ZM2.95122 13.0488V13.7073H2.29268V13.0488H2.95122ZM2.95122 13.7073V14.3659H2.29268V13.7073H2.95122ZM2.95122 14.3659V15.0244H2.29268V14.3659H2.95122ZM2.29268 14.3659V15.0244H1.63415V14.3659H2.29268ZM2.29268 15.0244V15.6829H1.63415V15.0244H2.29268ZM2.29268 15.6829V16.3415H1.63415V15.6829H2.29268ZM2.95122 15.6829V16.3415H2.29268V15.6829H2.95122ZM2.95122 16.3415V17H2.29268V16.3415H2.95122ZM2.29268 16.3415V17H1.63415V16.3415H2.29268ZM3.60976 16.3415V17H2.95122V16.3415H3.60976ZM4.26829 16.3415V17H3.60976V16.3415H4.26829ZM4.26829 15.6829V16.3415H3.60976V15.6829H4.26829ZM4.92683 15.6829V16.3415H4.26829V15.6829H4.92683ZM4.92683 16.3415V17H4.26829V16.3415H4.92683ZM4.92683 15.0244V15.6829H4.26829V15.0244H4.92683ZM4.92683 14.3659V15.0244H4.26829V14.3659H4.92683ZM4.92683 13.7073V14.3659H4.26829V13.7073H4.92683ZM5.58537 13.7073V14.3659H4.92683V13.7073H5.58537ZM5.58537 13.0488V13.7073H4.92683V13.0488H5.58537ZM5.58537 12.3902V13.0488H4.92683V12.3902H5.58537ZM6.2439 12.3902V13.0488H5.58537V12.3902H6.2439ZM6.90244 12.3902V13.0488H6.2439V12.3902H6.90244ZM7.56098 12.3902V13.0488H6.90244V12.3902H7.56098ZM8.21951 12.3902V13.0488H7.56098V12.3902H8.21951ZM8.87805 12.3902V13.0488H8.21951V12.3902H8.87805ZM8.87805 11.7317V12.3902H8.21951V11.7317H8.87805ZM8.87805 11.0732V11.7317H8.21951V11.0732H8.87805ZM8.21951 11.0732V11.7317H7.56098V11.0732H8.21951ZM7.56098 11.0732V11.7317H6.90244V11.0732H7.56098ZM7.56098 11.7317V12.3902H6.90244V11.7317H7.56098ZM6.90244 11.7317V12.3902H6.2439V11.7317H6.90244ZM6.2439 11.7317V12.3902H5.58537V11.7317H6.2439ZM6.2439 11.0732V11.7317H5.58537V11.0732H6.2439ZM6.90244 11.0732V11.7317H6.2439V11.0732H6.90244ZM8.21951 11.7317V12.3902H7.56098V11.7317H8.21951ZM8.87805 13.0488V13.7073H8.21951V13.0488H8.87805ZM8.87805 13.7073V14.3659H8.21951V13.7073H8.87805ZM8.87805 14.3659V15.0244H8.21951V14.3659H8.87805ZM8.21951 14.3659V15.0244H7.56098V14.3659H8.21951ZM8.21951 15.0244V15.6829H7.56098V15.0244H8.21951ZM8.21951 15.6829V16.3415H7.56098V15.6829H8.21951ZM8.21951 16.3415V17H7.56098V16.3415H8.21951ZM8.87805 16.3415V17H8.21951V16.3415H8.87805ZM9.53658 16.3415V17H8.87805V16.3415H9.53658ZM10.1951 16.3415V17H9.53658V16.3415H10.1951ZM10.8537 16.3415V17H10.1951V16.3415H10.8537ZM10.8537 15.6829V16.3415H10.1951V15.6829H10.8537ZM10.1951 15.6829V16.3415H9.53658V15.6829H10.1951ZM10.1951 15.0244V15.6829H9.53658V15.0244H10.1951ZM10.1951 14.3659V15.0244H9.53658V14.3659H10.1951ZM10.8537 14.3659V15.0244H10.1951V14.3659H10.8537ZM10.8537 15.0244V15.6829H10.1951V15.0244H10.8537ZM10.8537 13.7073V14.3659H10.1951V13.7073H10.8537ZM11.5122 13.7073V14.3659H10.8537V13.7073H11.5122ZM11.5122 13.0488V13.7073H10.8537V13.0488H11.5122ZM11.5122 12.3902V13.0488H10.8537V12.3902H11.5122ZM12.1707 12.3902V13.0488H11.5122V12.3902H12.1707ZM12.1707 11.7317V12.3902H11.5122V11.7317H12.1707ZM12.8293 11.7317V12.3902H12.1707V11.7317H12.8293ZM13.4878 11.7317V12.3902H12.8293V11.7317H13.4878ZM14.1463 11.7317V12.3902H13.4878V11.7317H14.1463ZM13.4878 12.3902V13.0488H12.8293V12.3902H13.4878ZM12.8293 12.3902V13.0488H12.1707V12.3902H12.8293ZM14.1463 12.3902V13.0488H13.4878V12.3902H14.1463ZM14.1463 11.0732V11.7317H13.4878V11.0732H14.1463ZM13.4878 11.0732V11.7317H12.8293V11.0732H13.4878ZM12.1707 11.0732V11.7317H11.5122V11.0732H12.1707ZM12.1707 10.4146V11.0732H11.5122V10.4146H12.1707ZM12.8293 11.0732V11.7317H12.1707V11.0732H12.8293ZM12.1707 9.7561V10.4146H11.5122V9.7561H12.1707ZM12.1707 9.09756V9.7561H11.5122V9.09756H12.1707ZM12.1707 8.43902V9.09756H11.5122V8.43902H12.1707ZM12.8293 8.43902V9.09756H12.1707V8.43902H12.8293ZM12.8293 7.78049V8.43902H12.1707V7.78049H12.8293ZM12.8293 7.12195V7.78049H12.1707V7.12195H12.8293ZM12.8293 6.46342V7.12195H12.1707V6.46342H12.8293ZM13.4878 6.46342V7.12195H12.8293V6.46342H13.4878ZM14.1463 6.46342V7.12195H13.4878V6.46342H14.1463ZM14.8049 6.46342V7.12195H14.1463V6.46342H14.8049ZM15.4634 6.46342V7.12195H14.8049V6.46342H15.4634ZM15.4634 5.14634V5.80488H14.8049V5.14634H15.4634ZM15.4634 5.80488V6.46342H14.8049V5.80488H15.4634ZM14.8049 5.80488V6.46342H14.1463V5.80488H14.8049ZM14.8049 5.14634V5.80488H14.1463V5.14634H14.8049ZM14.1463 5.14634V5.80488H13.4878V5.14634H14.1463ZM14.1463 5.80488V6.46342H13.4878V5.80488H14.1463ZM13.4878 5.80488V6.46342H12.8293V5.80488H13.4878ZM13.4878 5.14634V5.80488H12.8293V5.14634H13.4878ZM13.4878 4.48781V5.14634H12.8293V4.48781H13.4878ZM13.4878 3.82927V4.48781H12.8293V3.82927H13.4878ZM13.4878 3.17073V3.82927H12.8293V3.17073H13.4878ZM14.1463 3.17073V3.82927H13.4878V3.17073H14.1463ZM14.1463 2.5122V3.17073H13.4878V2.5122H14.1463ZM14.1463 1.85366V2.5122H13.4878V1.85366H14.1463ZM14.1463 1.19512V1.85366H13.4878V1.19512H14.1463ZM13.4878 1.19512V1.85366H12.8293V1.19512H13.4878ZM12.8293 1.19512V1.85366H12.1707V1.19512H12.8293ZM12.1707 1.19512V1.85366H11.5122V1.19512H12.1707ZM11.5122 1.19512V1.85366H10.8537V1.19512H11.5122ZM11.5122 1.85366V2.5122H10.8537V1.85366H11.5122ZM11.5122 2.5122V3.17073H10.8537V2.5122H11.5122ZM11.5122 3.17073V3.82927H10.8537V3.17073H11.5122ZM11.5122 3.82927V4.48781H10.8537V3.82927H11.5122ZM11.5122 4.48781V5.14634H10.8537V4.48781H11.5122ZM10.8537 4.48781V5.14634H10.1951V4.48781H10.8537ZM10.8537 3.82927V4.48781H10.1951V3.82927H10.8537ZM10.8537 5.14634V5.80488H10.1951V5.14634H10.8537ZM10.1951 5.14634V5.80488H9.53658V5.14634H10.1951ZM9.53658 5.14634V5.80488H8.87805V5.14634H9.53658ZM8.87805 5.14634V5.80488H8.21951V5.14634H8.87805ZM8.21951 5.14634V5.80488H7.56098V5.14634H8.21951ZM7.56098 5.14634V5.80488H6.90244V5.14634H7.56098ZM7.56098 4.48781V5.14634H6.90244V4.48781H7.56098ZM7.56098 3.82927V4.48781H6.90244V3.82927H7.56098ZM7.56098 3.17073V3.82927H6.90244V3.17073H7.56098ZM8.21951 3.17073V3.82927H7.56098V3.17073H8.21951ZM8.21951 2.5122V3.17073H7.56098V2.5122H8.21951ZM8.21951 1.85366V2.5122H7.56098V1.85366H8.21951ZM8.21951 1.19512V1.85366H7.56098V1.19512H8.21951ZM7.56098 1.19512V1.85366H6.90244V1.19512H7.56098ZM6.90244 1.19512V1.85366H6.2439V1.19512H6.90244ZM6.2439 1.19512V1.85366H5.58537V1.19512H6.2439ZM6.2439 1.85366V2.5122H5.58537V1.85366H6.2439ZM6.2439 2.5122V3.17073H5.58537V2.5122H6.2439ZM6.2439 3.17073V3.82927H5.58537V3.17073H6.2439ZM6.90244 3.17073V3.82927H6.2439V3.17073H6.90244ZM7.56098 2.5122V3.17073H6.90244V2.5122H7.56098ZM7.56098 1.85366V2.5122H6.90244V1.85366H7.56098ZM6.90244 1.85366V2.5122H6.2439V1.85366H6.90244ZM6.90244 2.5122V3.17073H6.2439V2.5122H6.90244ZM6.90244 3.82927V4.48781H6.2439V3.82927H6.90244ZM6.90244 4.48781V5.14634H6.2439V4.48781H6.90244ZM6.90244 5.14634V5.80488H6.2439V5.14634H6.90244ZM6.2439 5.14634V5.80488H5.58537V5.14634H6.2439ZM6.2439 4.48781V5.14634H5.58537V4.48781H6.2439ZM6.2439 3.82927V4.48781H5.58537V3.82927H6.2439ZM5.58537 4.48781V5.14634H4.92683V4.48781H5.58537ZM5.58537 5.14634V5.80488H4.92683V5.14634H5.58537ZM5.58537 5.80488V6.46342H4.92683V5.80488H5.58537ZM6.2439 5.80488V6.46342H5.58537V5.80488H6.2439ZM6.90244 5.80488V6.46342H6.2439V5.80488H6.90244ZM7.56098 5.80488V6.46342H6.90244V5.80488H7.56098ZM8.21951 5.80488V6.46342H7.56098V5.80488H8.21951ZM8.87805 5.80488V6.46342H8.21951V5.80488H8.87805ZM9.53658 5.80488V6.46342H8.87805V5.80488H9.53658ZM10.1951 5.80488V6.46342H9.53658V5.80488H10.1951ZM10.8537 5.80488V6.46342H10.1951V5.80488H10.8537ZM11.5122 5.80488V6.46342H10.8537V5.80488H11.5122ZM12.1707 5.80488V6.46342H11.5122V5.80488H12.1707ZM12.8293 5.80488V6.46342H12.1707V5.80488H12.8293ZM12.8293 5.14634V5.80488H12.1707V5.14634H12.8293ZM12.1707 5.14634V5.80488H11.5122V5.14634H12.1707ZM11.5122 5.14634V5.80488H10.8537V5.14634H11.5122ZM12.1707 4.48781V5.14634H11.5122V4.48781H12.1707ZM12.8293 4.48781V5.14634H12.1707V4.48781H12.8293ZM12.8293 3.82927V4.48781H12.1707V3.82927H12.8293ZM12.8293 3.17073V3.82927H12.1707V3.17073H12.8293ZM12.8293 2.5122V3.17073H12.1707V2.5122H12.8293ZM12.1707 2.5122V3.17073H11.5122V2.5122H12.1707ZM12.1707 3.17073V3.82927H11.5122V3.17073H12.1707ZM12.1707 3.82927V4.48781H11.5122V3.82927H12.1707ZM12.1707 1.85366V2.5122H11.5122V1.85366H12.1707ZM12.8293 1.85366V2.5122H12.1707V1.85366H12.8293ZM13.4878 1.85366V2.5122H12.8293V1.85366H13.4878ZM13.4878 2.5122V3.17073H12.8293V2.5122H13.4878ZM10.1951 6.46342V7.12195H9.53658V6.46342H10.1951ZM9.53658 6.46342V7.12195H8.87805V6.46342H9.53658ZM8.87805 6.46342V7.12195H8.21951V6.46342H8.87805ZM8.21951 6.46342V7.12195H7.56098V6.46342H8.21951ZM7.56098 6.46342V7.12195H6.90244V6.46342H7.56098ZM6.90244 6.46342V7.12195H6.2439V6.46342H6.90244ZM6.2439 6.46342V7.12195H5.58537V6.46342H6.2439ZM5.58537 6.46342V7.12195H4.92683V6.46342H5.58537ZM10.8537 6.46342V7.12195H10.1951V6.46342H10.8537ZM11.5122 6.46342V7.12195H10.8537V6.46342H11.5122ZM12.1707 6.46342V7.12195H11.5122V6.46342H12.1707ZM12.1707 7.12195V7.78049H11.5122V7.12195H12.1707ZM12.1707 7.78049V8.43902H11.5122V7.78049H12.1707ZM11.5122 8.43902V9.09756H10.8537V8.43902H11.5122ZM11.5122 7.78049V8.43902H10.8537V7.78049H11.5122ZM10.8537 7.12195V7.78049H10.1951V7.12195H10.8537ZM10.1951 7.12195V7.78049H9.53658V7.12195H10.1951ZM10.8537 7.78049V8.43902H10.1951V7.78049H10.8537ZM11.5122 7.12195V7.78049H10.8537V7.12195H11.5122ZM10.8537 8.43902V9.09756H10.1951V8.43902H10.8537ZM10.8537 9.09756V9.7561H10.1951V9.09756H10.8537ZM10.1951 8.43902V9.09756H9.53658V8.43902H10.1951ZM10.1951 7.78049V8.43902H9.53658V7.78049H10.1951ZM10.1951 9.09756V9.7561H9.53658V9.09756H10.1951ZM10.1951 9.7561V10.4146H9.53658V9.7561H10.1951ZM9.53658 9.7561V10.4146H8.87805V9.7561H9.53658ZM9.53658 9.09756V9.7561H8.87805V9.09756H9.53658ZM9.53658 10.4146V11.0732H8.87805V10.4146H9.53658ZM9.53658 11.0732V11.7317H8.87805V11.0732H9.53658ZM10.1951 11.0732V11.7317H9.53658V11.0732H10.1951ZM10.8537 11.0732V11.7317H10.1951V11.0732H10.8537ZM11.5122 10.4146V11.0732H10.8537V10.4146H11.5122ZM11.5122 9.7561V10.4146H10.8537V9.7561H11.5122ZM10.8537 9.7561V10.4146H10.1951V9.7561H10.8537ZM10.8537 10.4146V11.0732H10.1951V10.4146H10.8537ZM11.5122 9.09756V9.7561H10.8537V9.09756H11.5122ZM10.1951 10.4146V11.0732H9.53658V10.4146H10.1951ZM9.53658 11.7317V12.3902H8.87805V11.7317H9.53658ZM9.53658 12.3902V13.0488H8.87805V12.3902H9.53658ZM9.53658 13.0488V13.7073H8.87805V13.0488H9.53658ZM8.87805 15.0244V15.6829H8.21951V15.0244H8.87805ZM8.87805 15.6829V16.3415H8.21951V15.6829H8.87805ZM9.53658 15.6829V16.3415H8.87805V15.6829H9.53658ZM9.53658 15.0244V15.6829H8.87805V15.0244H9.53658ZM9.53658 14.3659V15.0244H8.87805V14.3659H9.53658ZM10.1951 13.7073V14.3659H9.53658V13.7073H10.1951ZM10.1951 13.0488V13.7073H9.53658V13.0488H10.1951ZM9.53658 13.7073V14.3659H8.87805V13.7073H9.53658ZM10.8537 12.3902V13.0488H10.1951V12.3902H10.8537ZM11.5122 11.7317V12.3902H10.8537V11.7317H11.5122ZM11.5122 11.0732V11.7317H10.8537V11.0732H11.5122ZM10.8537 13.0488V13.7073H10.1951V13.0488H10.8537ZM10.8537 11.7317V12.3902H10.1951V11.7317H10.8537ZM10.1951 12.3902V13.0488H9.53658V12.3902H10.1951ZM10.1951 11.7317V12.3902H9.53658V11.7317H10.1951ZM6.90244 7.12195V7.78049H6.2439V7.12195H6.90244ZM6.90244 7.78049V8.43902H6.2439V7.78049H6.90244ZM6.90244 8.43902V9.09756H6.2439V8.43902H6.90244ZM6.90244 9.09756V9.7561H6.2439V9.09756H6.90244ZM6.2439 9.09756V9.7561H5.58537V9.09756H6.2439ZM6.2439 9.7561V10.4146H5.58537V9.7561H6.2439ZM6.2439 10.4146V11.0732H5.58537V10.4146H6.2439ZM5.58537 11.7317V12.3902H4.92683V11.7317H5.58537ZM5.58537 11.0732V11.7317H4.92683V11.0732H5.58537ZM5.58537 10.4146V11.0732H4.92683V10.4146H5.58537ZM6.2439 8.43902V9.09756H5.58537V8.43902H6.2439ZM6.2439 7.12195V7.78049H5.58537V7.12195H6.2439ZM6.2439 7.78049V8.43902H5.58537V7.78049H6.2439ZM5.58537 9.7561V10.4146H4.92683V9.7561H5.58537ZM5.58537 9.09756V9.7561H4.92683V9.09756H5.58537ZM5.58537 8.43902V9.09756H4.92683V8.43902H5.58537ZM5.58537 7.78049V8.43902H4.92683V7.78049H5.58537ZM5.58537 7.12195V7.78049H4.92683V7.12195H5.58537ZM4.92683 9.09756V9.7561H4.26829V9.09756H4.92683ZM4.92683 9.7561V10.4146H4.26829V9.7561H4.92683ZM4.92683 10.4146V11.0732H4.26829V10.4146H4.92683ZM4.92683 11.0732V11.7317H4.26829V11.0732H4.92683ZM4.92683 11.7317V12.3902H4.26829V11.7317H4.92683ZM4.92683 12.3902V13.0488H4.26829V12.3902H4.92683ZM4.92683 13.0488V13.7073H4.26829V13.0488H4.92683ZM4.26829 13.0488V13.7073H3.60976V13.0488H4.26829ZM4.26829 12.3902V13.0488H3.60976V12.3902H4.26829ZM4.26829 11.7317V12.3902H3.60976V11.7317H4.26829ZM4.26829 11.0732V11.7317H3.60976V11.0732H4.26829ZM4.26829 10.4146V11.0732H3.60976V10.4146H4.26829ZM4.26829 13.7073V14.3659H3.60976V13.7073H4.26829ZM4.26829 14.3659V15.0244H3.60976V14.3659H4.26829ZM4.26829 15.0244V15.6829H3.60976V15.0244H4.26829ZM3.60976 15.0244V15.6829H2.95122V15.0244H3.60976ZM3.60976 15.6829V16.3415H2.95122V15.6829H3.60976ZM2.95122 15.0244V15.6829H2.29268V15.0244H2.95122ZM3.60976 14.3659V15.0244H2.95122V14.3659H3.60976ZM3.60976 13.7073V14.3659H2.95122V13.7073H3.60976ZM3.60976 13.0488V13.7073H2.95122V13.0488H3.60976ZM25.3389 13.7073V14.3659H24.6804V13.7073H25.3389ZM25.3389 13.0488V13.7073H24.6804V13.0488H25.3389ZM25.3389 12.3902V13.0488H24.6804V12.3902H25.3389ZM25.3389 11.7317V12.3902H24.6804V11.7317H25.3389ZM25.3389 7.12195V7.78049H24.6804V7.12195H25.3389ZM25.9974 7.12195V7.78049H25.3389V7.12195H25.9974ZM25.9974 7.78049V8.43902H25.3389V7.78049H25.9974ZM25.9974 8.43902V9.09756H25.3389V8.43902H25.9974ZM26.656 11.7317V12.3902H25.9974V11.7317H26.656ZM26.656 12.3902V13.0488H25.9974V12.3902H26.656ZM26.656 13.0488V13.7073H25.9974V13.0488H26.656ZM26.656 13.7073V14.3659H25.9974V13.7073H26.656ZM26.656 14.3659V15.0244H25.9974V14.3659H26.656ZM26.656 15.0244V15.6829H25.9974V15.0244H26.656ZM26.656 15.6829V16.3415H25.9974V15.6829H26.656ZM27.973 16.3415V17H27.3145V16.3415H27.973ZM27.973 15.6829V16.3415H27.3145V15.6829H27.973ZM27.973 15.0244V15.6829H27.3145V15.0244H27.973ZM27.973 14.3659V15.0244H27.3145V14.3659H27.973ZM27.973 13.7073V14.3659H27.3145V13.7073H27.973ZM27.973 13.0488V13.7073H27.3145V13.0488H27.973ZM27.973 12.3902V13.0488H27.3145V12.3902H27.973ZM27.973 11.7317V12.3902H27.3145V11.7317H27.973ZM27.3145 11.7317V12.3902H26.656V11.7317H27.3145ZM27.3145 12.3902V13.0488H26.656V12.3902H27.3145ZM27.3145 13.0488V13.7073H26.656V13.0488H27.3145ZM27.3145 13.7073V14.3659H26.656V13.7073H27.3145ZM27.3145 14.3659V15.0244H26.656V14.3659H27.3145ZM27.3145 15.0244V15.6829H26.656V15.0244H27.3145ZM27.3145 15.6829V16.3415H26.656V15.6829H27.3145ZM25.9974 15.0244V15.6829H25.3389V15.0244H25.9974ZM25.9974 14.3659V15.0244H25.3389V14.3659H25.9974ZM25.9974 13.7073V14.3659H25.3389V13.7073H25.9974ZM25.9974 13.0488V13.7073H25.3389V13.0488H25.9974ZM25.9974 12.3902V13.0488H25.3389V12.3902H25.9974ZM25.9974 11.7317V12.3902H25.3389V11.7317H25.9974ZM25.3389 6.46342V7.12195H24.6804V6.46342H25.3389ZM27.3145 6.46342V7.12195H26.656V6.46342H27.3145ZM27.3145 7.12195V7.78049H26.656V7.12195H27.3145ZM27.3145 7.78049V8.43902H26.656V7.78049H27.3145ZM27.3145 8.43902V9.09756H26.656V8.43902H27.3145ZM27.3145 9.09756V9.7561H26.656V9.09756H27.3145ZM27.973 9.7561V10.4146H27.3145V9.7561H27.973ZM27.973 9.09756V9.7561H27.3145V9.09756H27.973ZM27.973 8.43902V9.09756H27.3145V8.43902H27.973ZM27.973 7.78049V8.43902H27.3145V7.78049H27.973ZM27.973 7.12195V7.78049H27.3145V7.12195H27.973ZM27.973 6.46342V7.12195H27.3145V6.46342H27.973ZM25.9974 6.46342V7.12195H25.3389V6.46342H25.9974ZM26.656 6.46342V7.12195H25.9974V6.46342H26.656ZM26.656 7.12195V7.78049H25.9974V7.12195H26.656ZM26.656 7.78049V8.43902H25.9974V7.78049H26.656ZM26.656 8.43902V9.09756H25.9974V8.43902H26.656ZM26.656 9.09756V9.7561H25.9974V9.09756H26.656ZM33.2413 16.3415V17H32.5828V16.3415H33.2413ZM33.2413 15.6829V16.3415H32.5828V15.6829H33.2413ZM33.2413 15.0244V15.6829H32.5828V15.0244H33.2413ZM33.2413 14.3659V15.0244H32.5828V14.3659H33.2413ZM33.2413 13.7073V14.3659H32.5828V13.7073H33.2413ZM33.2413 13.0488V13.7073H32.5828V13.0488H33.2413ZM33.2413 12.3902V13.0488H32.5828V12.3902H33.2413ZM33.2413 11.7317V12.3902H32.5828V11.7317H33.2413ZM33.2413 11.0732V11.7317H32.5828V11.0732H33.2413ZM33.2413 10.4146V11.0732H32.5828V10.4146H33.2413ZM33.2413 9.7561V10.4146H32.5828V9.7561H33.2413ZM33.2413 9.09756V9.7561H32.5828V9.09756H33.2413ZM33.2413 8.43902V9.09756H32.5828V8.43902H33.2413ZM33.2413 7.78049V8.43902H32.5828V7.78049H33.2413ZM33.2413 7.12195V7.78049H32.5828V7.12195H33.2413ZM33.8999 7.78049V8.43902H33.2413V7.78049H33.8999ZM33.8999 8.43902V9.09756H33.2413V8.43902H33.8999ZM33.8999 9.09756V9.7561H33.2413V9.09756H33.8999ZM33.8999 9.7561V10.4146H33.2413V9.7561H33.8999ZM33.8999 10.4146V11.0732H33.2413V10.4146H33.8999ZM33.8999 11.0732V11.7317H33.2413V11.0732H33.8999ZM34.5584 11.7317V12.3902H33.8999V11.7317H34.5584ZM34.5584 12.3902V13.0488H33.8999V12.3902H34.5584ZM34.5584 13.0488V13.7073H33.8999V13.0488H34.5584ZM34.5584 13.7073V14.3659H33.8999V13.7073H34.5584ZM34.5584 14.3659V15.0244H33.8999V14.3659H34.5584ZM34.5584 15.0244V15.6829H33.8999V15.0244H34.5584ZM34.5584 15.6829V16.3415H33.8999V15.6829H34.5584ZM35.8755 13.7073V14.3659H35.2169V13.7073H35.8755ZM35.8755 13.0488V13.7073H35.2169V13.0488H35.8755ZM35.8755 12.3902V13.0488H35.2169V12.3902H35.8755ZM35.8755 11.7317V12.3902H35.2169V11.7317H35.8755ZM35.2169 11.7317V12.3902H34.5584V11.7317H35.2169ZM35.2169 11.0732V11.7317H34.5584V11.0732H35.2169ZM35.2169 12.3902V13.0488H34.5584V12.3902H35.2169ZM35.2169 13.0488V13.7073H34.5584V13.0488H35.2169ZM35.2169 13.7073V14.3659H34.5584V13.7073H35.2169ZM35.2169 14.3659V15.0244H34.5584V14.3659H35.2169ZM35.2169 15.0244V15.6829H34.5584V15.0244H35.2169ZM33.8999 15.6829V16.3415H33.2413V15.6829H33.8999ZM33.8999 15.0244V15.6829H33.2413V15.0244H33.8999ZM33.8999 14.3659V15.0244H33.2413V14.3659H33.8999ZM33.8999 13.7073V14.3659H33.2413V13.7073H33.8999ZM33.8999 13.0488V13.7073H33.2413V13.0488H33.8999ZM33.8999 12.3902V13.0488H33.2413V12.3902H33.8999ZM33.8999 11.7317V12.3902H33.2413V11.7317H33.8999ZM35.2169 9.09756V9.7561H34.5584V9.09756H35.2169ZM35.8755 9.7561V10.4146H35.2169V9.7561H35.8755ZM35.8755 10.4146V11.0732H35.2169V10.4146H35.8755ZM35.8755 11.0732V11.7317H35.2169V11.0732H35.8755ZM34.5584 7.78049V8.43902H33.8999V7.78049H34.5584ZM34.5584 8.43902V9.09756H33.8999V8.43902H34.5584ZM34.5584 9.09756V9.7561H33.8999V9.09756H34.5584ZM34.5584 9.7561V10.4146H33.8999V9.7561H34.5584ZM34.5584 10.4146V11.0732H33.8999V10.4146H34.5584ZM34.5584 11.0732V11.7317H33.8999V11.0732H34.5584ZM35.2169 10.4146V11.0732H34.5584V10.4146H35.2169ZM35.2169 9.7561V10.4146H34.5584V9.7561H35.2169ZM28.6316 16.3415V17H27.973V16.3415H28.6316ZM29.2901 16.3415V17H28.6316V16.3415H29.2901ZM29.9486 16.3415V17H29.2901V16.3415H29.9486ZM31.2657 16.3415V17H30.6072V16.3415H31.2657ZM31.9243 16.3415V17H31.2657V16.3415H31.9243ZM32.5828 16.3415V17H31.9243V16.3415H32.5828ZM32.5828 15.6829V16.3415H31.9243V15.6829H32.5828ZM31.9243 15.6829V16.3415H31.2657V15.6829H31.9243ZM31.2657 15.6829V16.3415H30.6072V15.6829H31.2657ZM29.9486 15.6829V16.3415H29.2901V15.6829H29.9486ZM29.2901 15.6829V16.3415H28.6316V15.6829H29.2901ZM28.6316 15.6829V16.3415H27.973V15.6829H28.6316ZM28.6316 15.0244V15.6829H27.973V15.0244H28.6316ZM29.2901 15.0244V15.6829H28.6316V15.0244H29.2901ZM29.9486 15.0244V15.6829H29.2901V15.0244H29.9486ZM31.2657 15.0244V15.6829H30.6072V15.0244H31.2657ZM31.9243 15.0244V15.6829H31.2657V15.0244H31.9243ZM32.5828 15.0244V15.6829H31.9243V15.0244H32.5828ZM32.5828 14.3659V15.0244H31.9243V14.3659H32.5828ZM31.9243 14.3659V15.0244H31.2657V14.3659H31.9243ZM31.2657 14.3659V15.0244H30.6072V14.3659H31.2657ZM29.9486 14.3659V15.0244H29.2901V14.3659H29.9486ZM29.2901 14.3659V15.0244H28.6316V14.3659H29.2901ZM28.6316 14.3659V15.0244H27.973V14.3659H28.6316ZM28.6316 13.7073V14.3659H27.973V13.7073H28.6316ZM32.5828 13.7073V14.3659H31.9243V13.7073H32.5828ZM35.2169 3.82927V3.17073H35.8755V3.82927H35.2169ZM35.2169 4.48781V3.82927H35.8755V4.48781H35.2169ZM35.2169 5.14634V4.48781H35.8755V5.14634H35.2169ZM33.8999 5.14634V4.48781H34.5584V5.14634H33.8999ZM33.8999 4.48781V3.82927H34.5584V4.48781H33.8999ZM33.8999 3.82927V3.17073H34.5584V3.82927H33.8999ZM33.8999 3.17073V2.5122H34.5584V3.17073H33.8999ZM33.8999 2.5122V1.85366H34.5584V2.5122H33.8999ZM33.8999 1.85366V1.19512H34.5584V1.85366H33.8999ZM32.5828 1.19512V0.536585H33.2413V1.19512H32.5828ZM32.5828 1.85366V1.19512H33.2413V1.85366H32.5828ZM32.5828 2.5122V1.85366H33.2413V2.5122H32.5828ZM32.5828 3.17073V2.5122H33.2413V3.17073H32.5828ZM32.5828 3.82927V3.17073H33.2413V3.82927H32.5828ZM32.5828 4.48781V3.82927H33.2413V4.48781H32.5828ZM32.5828 5.14634V4.48781H33.2413V5.14634H32.5828ZM33.2413 5.14634V4.48781H33.8999V5.14634H33.2413ZM33.2413 4.48781V3.82927H33.8999V4.48781H33.2413ZM33.2413 3.82927V3.17073H33.8999V3.82927H33.2413ZM33.2413 3.17073V2.5122H33.8999V3.17073H33.2413ZM33.2413 2.5122V1.85366H33.8999V2.5122H33.2413ZM33.2413 1.85366V1.19512H33.8999V1.85366H33.2413ZM34.5584 2.5122V1.85366H35.2169V2.5122H34.5584ZM34.5584 3.17073V2.5122H35.2169V3.17073H34.5584ZM34.5584 3.82927V3.17073H35.2169V3.82927H34.5584ZM34.5584 4.48781V3.82927H35.2169V4.48781H34.5584ZM34.5584 5.14634V4.48781H35.2169V5.14634H34.5584ZM27.3145 1.19512V0.536585H27.973V1.19512H27.3145ZM27.3145 1.85366V1.19512H27.973V1.85366H27.3145ZM27.3145 2.5122V1.85366H27.973V2.5122H27.3145ZM27.3145 3.17073V2.5122H27.973V3.17073H27.3145ZM27.3145 3.82927V3.17073H27.973V3.82927H27.3145ZM27.3145 4.48781V3.82927H27.973V4.48781H27.3145ZM27.3145 5.14634V4.48781H27.973V5.14634H27.3145ZM25.9974 5.14634V4.48781H26.656V5.14634H25.9974ZM25.9974 4.48781V3.82927H26.656V4.48781H25.9974ZM25.9974 3.82927V3.17073H26.656V3.82927H25.9974ZM25.9974 3.17073V2.5122H26.656V3.17073H25.9974ZM25.9974 2.5122V1.85366H26.656V2.5122H25.9974ZM25.9974 1.85366V1.19512H26.656V1.85366H25.9974ZM24.6804 3.82927V3.17073H25.3389V3.82927H24.6804ZM24.6804 4.48781V3.82927H25.3389V4.48781H24.6804ZM24.6804 5.14634V4.48781H25.3389V5.14634H24.6804ZM25.3389 5.14634V4.48781H25.9974V5.14634H25.3389ZM25.3389 4.48781V3.82927H25.9974V4.48781H25.3389ZM25.3389 3.82927V3.17073H25.9974V3.82927H25.3389ZM25.3389 3.17073V2.5122H25.9974V3.17073H25.3389ZM25.3389 2.5122V1.85366H25.9974V2.5122H25.3389ZM26.656 1.85366V1.19512H27.3145V1.85366H26.656ZM26.656 2.5122V1.85366H27.3145V2.5122H26.656ZM26.656 3.17073V2.5122H27.3145V3.17073H26.656ZM26.656 3.82927V3.17073H27.3145V3.82927H26.656ZM26.656 4.48781V3.82927H27.3145V4.48781H26.656ZM26.656 5.14634V4.48781H27.3145V5.14634H26.656ZM31.9243 1.19512V0.536585H32.5828V1.19512H31.9243ZM31.2657 1.19512V0.536585H31.9243V1.19512H31.2657ZM30.6072 1.19512V0.536585H31.2657V1.19512H30.6072ZM29.2901 1.19512V0.536585H29.9486V1.19512H29.2901ZM28.6316 1.19512V0.536585H29.2901V1.19512H28.6316ZM27.973 1.19512V0.536585H28.6316V1.19512H27.973ZM27.973 1.85366V1.19512H28.6316V1.85366H27.973ZM28.6316 1.85366V1.19512H29.2901V1.85366H28.6316ZM29.2901 1.85366V1.19512H29.9486V1.85366H29.2901ZM30.6072 1.85366V1.19512H31.2657V1.85366H30.6072ZM31.2657 1.85366V1.19512H31.9243V1.85366H31.2657ZM31.9243 1.85366V1.19512H32.5828V1.85366H31.9243ZM31.9243 2.5122V1.85366H32.5828V2.5122H31.9243ZM31.2657 2.5122V1.85366H31.9243V2.5122H31.2657ZM30.6072 2.5122V1.85366H31.2657V2.5122H30.6072ZM29.2901 2.5122V1.85366H29.9486V2.5122H29.2901ZM28.6316 2.5122V1.85366H29.2901V2.5122H28.6316ZM27.973 2.5122V1.85366H28.6316V2.5122H27.973ZM27.973 3.17073V2.5122H28.6316V3.17073H27.973ZM28.6316 3.17073V2.5122H29.2901V3.17073H28.6316ZM29.2901 3.17073V2.5122H29.9486V3.17073H29.2901ZM30.6072 3.17073V2.5122H31.2657V3.17073H30.6072ZM31.2657 3.17073V2.5122H31.9243V3.17073H31.2657ZM31.9243 3.17073V2.5122H32.5828V3.17073H31.9243ZM31.9243 3.82927V3.17073H32.5828V3.82927H31.9243ZM27.973 3.82927V3.17073H28.6316V3.82927H27.973ZM25.3389 5.80488V6.46342H24.6804V5.80488H25.3389ZM25.9974 5.80488V6.46342H25.3389V5.80488H25.9974ZM25.3389 5.14634V5.80488H24.6804V5.14634H25.3389ZM27.3145 5.14634V5.80488H26.656V5.14634H27.3145ZM27.3145 5.80488V6.46342H26.656V5.80488H27.3145ZM27.973 5.80488V6.46342H27.3145V5.80488H27.973ZM27.973 5.14634V5.80488H27.3145V5.14634H27.973ZM25.9974 5.14634V5.80488H25.3389V5.14634H25.9974ZM26.656 5.14634V5.80488H25.9974V5.14634H26.656ZM26.656 5.80488V6.46342H25.9974V5.80488H26.656ZM29.2901 13.7073V14.3659H28.6316V13.7073H29.2901ZM29.9486 13.7073V14.3659H29.2901V13.7073H29.9486ZM31.2657 13.7073V14.3659H30.6072V13.7073H31.2657ZM31.9243 13.7073V14.3659H31.2657V13.7073H31.9243ZM32.5828 13.0488V13.7073H31.9243V13.0488H32.5828ZM28.6316 13.0488V13.7073H27.973V13.0488H28.6316ZM29.2901 3.17073V3.82927H28.6316V3.17073H29.2901ZM29.9486 3.17073V3.82927H29.2901V3.17073H29.9486ZM31.2657 3.17073V3.82927H30.6072V3.17073H31.2657ZM31.9243 3.17073V3.82927H31.2657V3.17073H31.9243ZM32.5828 3.82927V4.48781H31.9243V3.82927H32.5828ZM28.6316 3.82927V4.48781H27.973V3.82927H28.6316ZM29.9486 8.43902V9.09756H29.2901V8.43902H29.9486ZM31.2657 8.43902V9.09756H30.6072V8.43902H31.2657ZM31.9243 8.43902V9.09756H31.2657V8.43902H31.9243ZM32.5828 8.43902V9.09756H31.9243V8.43902H32.5828ZM32.5828 9.09756V9.7561H31.9243V9.09756H32.5828ZM31.9243 9.09756V9.7561H31.2657V9.09756H31.9243ZM31.2657 9.09756V9.7561H30.6072V9.09756H31.2657ZM29.9486 9.09756V9.7561H29.2901V9.09756H29.9486ZM29.9486 7.12195V7.78049H29.2901V7.12195H29.9486ZM31.2657 7.12195V7.78049H30.6072V7.12195H31.2657ZM31.9243 7.12195V7.78049H31.2657V7.12195H31.9243ZM32.5828 7.12195V7.78049H31.9243V7.12195H32.5828ZM32.5828 7.78049V8.43902H31.9243V7.78049H32.5828ZM31.9243 7.78049V8.43902H31.2657V7.78049H31.9243ZM31.2657 7.78049V8.43902H30.6072V7.78049H31.2657ZM29.9486 7.78049V8.43902H29.2901V7.78049H29.9486ZM29.9486 9.7561V10.4146H29.2901V9.7561H29.9486ZM31.2657 9.7561V10.4146H30.6072V9.7561H31.2657ZM31.9243 9.7561V10.4146H31.2657V9.7561H31.9243ZM32.5828 9.7561V10.4146H31.9243V9.7561H32.5828ZM35.2169 8.43902V9.09756H34.5584V8.43902H35.2169ZM32.5828 10.4146V11.0732H31.9243V10.4146H32.5828ZM28.6316 7.12195V7.78049H27.973V7.12195H28.6316ZM29.2901 7.12195V7.78049H28.6316V7.12195H29.2901ZM28.6316 6.46342V7.12195H27.973V6.46342H28.6316ZM29.2901 7.78049V8.43902H28.6316V7.78049H29.2901ZM29.2901 8.43902V9.09756H28.6316V8.43902H29.2901ZM29.2901 9.09756V9.7561H28.6316V9.09756H29.2901ZM29.2901 9.7561V10.4146H28.6316V9.7561H29.2901ZM28.6316 9.7561V10.4146H27.973V9.7561H28.6316ZM28.6316 9.09756V9.7561H27.973V9.09756H28.6316ZM28.6316 8.43902V9.09756H27.973V8.43902H28.6316ZM28.6316 7.78049V8.43902H27.973V7.78049H28.6316ZM30.6072 0.536585V1.19512H29.9486V0.536585H30.6072ZM30.6072 1.19512V1.85366H29.9486V1.19512H30.6072ZM30.6072 1.85366V2.5122H29.9486V1.85366H30.6072ZM30.6072 2.5122V3.17073H29.9486V2.5122H30.6072ZM30.6072 3.17073V3.82927H29.9486V3.17073H30.6072ZM30.6072 7.12195V7.78049H29.9486V7.12195H30.6072ZM30.6072 7.78049V8.43902H29.9486V7.78049H30.6072ZM30.6072 8.43902V9.09756H29.9486V8.43902H30.6072ZM30.6072 9.09756V9.7561H29.9486V9.09756H30.6072ZM30.6072 9.7561V10.4146H29.9486V9.7561H30.6072ZM30.6072 13.7073V14.3659H29.9486V13.7073H30.6072ZM30.6072 14.3659V15.0244H29.9486V14.3659H30.6072ZM30.6072 15.0244V15.6829H29.9486V15.0244H30.6072ZM30.6072 15.6829V16.3415H29.9486V15.6829H30.6072ZM30.6072 16.3415V17H29.9486V16.3415H30.6072ZM39.1553 16.3415V17H38.4968V16.3415H39.1553ZM39.8138 16.3415V17H39.1553V16.3415H39.8138ZM40.4724 16.3415V17H39.8138V16.3415H40.4724ZM41.1309 16.3415V17H40.4724V16.3415H41.1309ZM41.1309 15.6829V16.3415H40.4724V15.6829H41.1309ZM41.1309 15.0244V15.6829H40.4724V15.0244H41.1309ZM41.1309 14.3659V15.0244H40.4724V14.3659H41.1309ZM41.7894 14.3659V15.0244H41.1309V14.3659H41.7894ZM41.7894 15.0244V15.6829H41.1309V15.0244H41.7894ZM41.7894 15.6829V16.3415H41.1309V15.6829H41.7894ZM41.7894 16.3415V17H41.1309V16.3415H41.7894ZM41.7894 13.7073V14.3659H41.1309V13.7073H41.7894ZM41.1309 13.7073V14.3659H40.4724V13.7073H41.1309ZM40.4724 13.7073V14.3659H39.8138V13.7073H40.4724ZM39.8138 13.7073V14.3659H39.1553V13.7073H39.8138ZM39.8138 14.3659V15.0244H39.1553V14.3659H39.8138ZM39.1553 13.7073V14.3659H38.4968V13.7073H39.1553ZM39.1553 14.3659V15.0244H38.4968V14.3659H39.1553ZM39.1553 15.0244V15.6829H38.4968V15.0244H39.1553ZM39.1553 15.6829V16.3415H38.4968V15.6829H39.1553ZM39.8138 15.6829V16.3415H39.1553V15.6829H39.8138ZM40.4724 15.6829V16.3415H39.8138V15.6829H40.4724ZM40.4724 15.0244V15.6829H39.8138V15.0244H40.4724ZM40.4724 14.3659V15.0244H39.8138V14.3659H40.4724ZM39.8138 15.0244V15.6829H39.1553V15.0244H39.8138ZM45.0879 13.7073V14.3659H44.4294V13.7073H45.0879ZM45.0879 13.0488V13.7073H44.4294V13.0488H45.0879ZM45.0879 12.3902V13.0488H44.4294V12.3902H45.0879ZM45.0879 11.7317V12.3902H44.4294V11.7317H45.0879ZM45.0879 11.0732V11.7317H44.4294V11.0732H45.0879ZM45.0879 10.4146V11.0732H44.4294V10.4146H45.0879ZM45.0879 9.7561V10.4146H44.4294V9.7561H45.0879ZM45.0879 9.09756V9.7561H44.4294V9.09756H45.0879ZM45.0879 8.43902V9.09756H44.4294V8.43902H45.0879ZM45.0879 7.78049V8.43902H44.4294V7.78049H45.0879ZM45.0879 7.12195V7.78049H44.4294V7.12195H45.0879ZM45.7465 7.12195V7.78049H45.0879V7.12195H45.7465ZM45.7465 7.78049V8.43902H45.0879V7.78049H45.7465ZM45.7465 8.43902V9.09756H45.0879V8.43902H45.7465ZM45.7465 9.09756V9.7561H45.0879V9.09756H45.7465ZM45.7465 9.7561V10.4146H45.0879V9.7561H45.7465ZM45.7465 10.4146V11.0732H45.0879V10.4146H45.7465ZM45.7465 11.0732V11.7317H45.0879V11.0732H45.7465ZM46.405 11.7317V12.3902H45.7465V11.7317H46.405ZM46.405 12.3902V13.0488H45.7465V12.3902H46.405ZM46.405 13.0488V13.7073H45.7465V13.0488H46.405ZM46.405 13.7073V14.3659H45.7465V13.7073H46.405ZM46.405 14.3659V15.0244H45.7465V14.3659H46.405ZM46.405 15.0244V15.6829H45.7465V15.0244H46.405ZM46.405 15.6829V16.3415H45.7465V15.6829H46.405ZM47.7221 16.3415V17H47.0635V16.3415H47.7221ZM47.7221 15.6829V16.3415H47.0635V15.6829H47.7221ZM47.7221 15.0244V15.6829H47.0635V15.0244H47.7221ZM47.7221 14.3659V15.0244H47.0635V14.3659H47.7221ZM47.7221 13.7073V14.3659H47.0635V13.7073H47.7221ZM47.7221 13.0488V13.7073H47.0635V13.0488H47.7221ZM47.7221 12.3902V13.0488H47.0635V12.3902H47.7221ZM47.7221 11.7317V12.3902H47.0635V11.7317H47.7221ZM47.0635 11.7317V12.3902H46.405V11.7317H47.0635ZM47.0635 11.0732V11.7317H46.405V11.0732H47.0635ZM47.0635 12.3902V13.0488H46.405V12.3902H47.0635ZM47.0635 13.0488V13.7073H46.405V13.0488H47.0635ZM47.0635 13.7073V14.3659H46.405V13.7073H47.0635ZM47.0635 14.3659V15.0244H46.405V14.3659H47.0635ZM47.0635 15.0244V15.6829H46.405V15.0244H47.0635ZM47.0635 15.6829V16.3415H46.405V15.6829H47.0635ZM45.7465 15.0244V15.6829H45.0879V15.0244H45.7465ZM45.7465 14.3659V15.0244H45.0879V14.3659H45.7465ZM45.7465 13.7073V14.3659H45.0879V13.7073H45.7465ZM45.7465 13.0488V13.7073H45.0879V13.0488H45.7465ZM45.7465 12.3902V13.0488H45.0879V12.3902H45.7465ZM45.7465 11.7317V12.3902H45.0879V11.7317H45.7465ZM45.0879 6.46342V7.12195H44.4294V6.46342H45.0879ZM47.0635 6.46342V7.12195H46.405V6.46342H47.0635ZM47.0635 7.12195V7.78049H46.405V7.12195H47.0635ZM47.0635 7.78049V8.43902H46.405V7.78049H47.0635ZM47.0635 8.43902V9.09756H46.405V8.43902H47.0635ZM47.0635 9.09756V9.7561H46.405V9.09756H47.0635ZM47.7221 9.7561V10.4146H47.0635V9.7561H47.7221ZM47.7221 10.4146V11.0732H47.0635V10.4146H47.7221ZM47.7221 11.0732V11.7317H47.0635V11.0732H47.7221ZM47.7221 9.09756V9.7561H47.0635V9.09756H47.7221ZM47.7221 8.43902V9.09756H47.0635V8.43902H47.7221ZM47.7221 7.78049V8.43902H47.0635V7.78049H47.7221ZM47.7221 7.12195V7.78049H47.0635V7.12195H47.7221ZM47.7221 6.46342V7.12195H47.0635V6.46342H47.7221ZM45.7465 6.46342V7.12195H45.0879V6.46342H45.7465ZM46.405 6.46342V7.12195H45.7465V6.46342H46.405ZM46.405 7.12195V7.78049H45.7465V7.12195H46.405ZM46.405 7.78049V8.43902H45.7465V7.78049H46.405ZM46.405 8.43902V9.09756H45.7465V8.43902H46.405ZM46.405 9.09756V9.7561H45.7465V9.09756H46.405ZM46.405 9.7561V10.4146H45.7465V9.7561H46.405ZM46.405 10.4146V11.0732H45.7465V10.4146H46.405ZM46.405 11.0732V11.7317H45.7465V11.0732H46.405ZM47.0635 10.4146V11.0732H46.405V10.4146H47.0635ZM47.0635 9.7561V10.4146H46.405V9.7561H47.0635ZM52.9904 16.3415V17H52.3318V16.3415H52.9904ZM52.9904 15.6829V16.3415H52.3318V15.6829H52.9904ZM52.9904 15.0244V15.6829H52.3318V15.0244H52.9904ZM52.9904 14.3659V15.0244H52.3318V14.3659H52.9904ZM52.9904 13.7073V14.3659H52.3318V13.7073H52.9904ZM52.9904 13.0488V13.7073H52.3318V13.0488H52.9904ZM52.9904 12.3902V13.0488H52.3318V12.3902H52.9904ZM54.3074 12.3902V13.0488H53.6489V12.3902H54.3074ZM54.3074 13.0488V13.7073H53.6489V13.0488H54.3074ZM54.3074 13.7073V14.3659H53.6489V13.7073H54.3074ZM54.3074 14.3659V15.0244H53.6489V14.3659H54.3074ZM54.3074 15.0244V15.6829H53.6489V15.0244H54.3074ZM54.3074 15.6829V16.3415H53.6489V15.6829H54.3074ZM55.6245 13.7073V14.3659H54.966V13.7073H55.6245ZM55.6245 13.0488V13.7073H54.966V13.0488H55.6245ZM55.6245 12.3902V13.0488H54.966V12.3902H55.6245ZM54.966 12.3902V13.0488H54.3074V12.3902H54.966ZM54.966 13.0488V13.7073H54.3074V13.0488H54.966ZM54.966 13.7073V14.3659H54.3074V13.7073H54.966ZM54.966 14.3659V15.0244H54.3074V14.3659H54.966ZM54.966 15.0244V15.6829H54.3074V15.0244H54.966ZM53.6489 15.6829V16.3415H52.9904V15.6829H53.6489ZM53.6489 15.0244V15.6829H52.9904V15.0244H53.6489ZM53.6489 14.3659V15.0244H52.9904V14.3659H53.6489ZM53.6489 13.7073V14.3659H52.9904V13.7073H53.6489ZM53.6489 13.0488V13.7073H52.9904V13.0488H53.6489ZM53.6489 12.3902V13.0488H52.9904V12.3902H53.6489ZM48.3806 16.3415V17H47.7221V16.3415H48.3806ZM49.0391 16.3415V17H48.3806V16.3415H49.0391ZM49.6977 16.3415V17H49.0391V16.3415H49.6977ZM50.3562 16.3415V17H49.6977V16.3415H50.3562ZM51.0147 16.3415V17H50.3562V16.3415H51.0147ZM52.3318 16.3415V17H51.6733V16.3415H52.3318ZM52.3318 15.6829V16.3415H51.6733V15.6829H52.3318ZM51.0147 15.6829V16.3415H50.3562V15.6829H51.0147ZM50.3562 15.6829V16.3415H49.6977V15.6829H50.3562ZM49.6977 15.6829V16.3415H49.0391V15.6829H49.6977ZM49.0391 15.6829V16.3415H48.3806V15.6829H49.0391ZM48.3806 15.6829V16.3415H47.7221V15.6829H48.3806ZM48.3806 15.0244V15.6829H47.7221V15.0244H48.3806ZM49.0391 15.0244V15.6829H48.3806V15.0244H49.0391ZM49.6977 15.0244V15.6829H49.0391V15.0244H49.6977ZM50.3562 15.0244V15.6829H49.6977V15.0244H50.3562ZM51.0147 15.0244V15.6829H50.3562V15.0244H51.0147ZM52.3318 15.0244V15.6829H51.6733V15.0244H52.3318ZM52.3318 14.3659V15.0244H51.6733V14.3659H52.3318ZM51.0147 14.3659V15.0244H50.3562V14.3659H51.0147ZM50.3562 14.3659V15.0244H49.6977V14.3659H50.3562ZM49.6977 14.3659V15.0244H49.0391V14.3659H49.6977ZM49.0391 14.3659V15.0244H48.3806V14.3659H49.0391ZM48.3806 14.3659V15.0244H47.7221V14.3659H48.3806ZM48.3806 13.7073V14.3659H47.7221V13.7073H48.3806ZM52.3318 13.7073V14.3659H51.6733V13.7073H52.3318ZM54.966 3.82927V3.17073H55.6245V3.82927H54.966ZM54.966 4.48781V3.82927H55.6245V4.48781H54.966ZM54.966 5.14634V4.48781H55.6245V5.14634H54.966ZM53.6489 5.14634V4.48781H54.3074V5.14634H53.6489ZM53.6489 4.48781V3.82927H54.3074V4.48781H53.6489ZM53.6489 3.82927V3.17073H54.3074V3.82927H53.6489ZM53.6489 3.17073V2.5122H54.3074V3.17073H53.6489ZM53.6489 2.5122V1.85366H54.3074V2.5122H53.6489ZM53.6489 1.85366V1.19512H54.3074V1.85366H53.6489ZM52.3318 1.19512V0.536585H52.9904V1.19512H52.3318ZM52.3318 1.85366V1.19512H52.9904V1.85366H52.3318ZM52.3318 2.5122V1.85366H52.9904V2.5122H52.3318ZM52.3318 3.17073V2.5122H52.9904V3.17073H52.3318ZM52.3318 3.82927V3.17073H52.9904V3.82927H52.3318ZM52.3318 4.48781V3.82927H52.9904V4.48781H52.3318ZM52.3318 5.14634V4.48781H52.9904V5.14634H52.3318ZM52.9904 5.14634V4.48781H53.6489V5.14634H52.9904ZM52.9904 4.48781V3.82927H53.6489V4.48781H52.9904ZM52.9904 3.82927V3.17073H53.6489V3.82927H52.9904ZM52.9904 3.17073V2.5122H53.6489V3.17073H52.9904ZM52.9904 2.5122V1.85366H53.6489V2.5122H52.9904ZM52.9904 1.85366V1.19512H53.6489V1.85366H52.9904ZM54.3074 2.5122V1.85366H54.966V2.5122H54.3074ZM54.3074 3.17073V2.5122H54.966V3.17073H54.3074ZM54.3074 3.82927V3.17073H54.966V3.82927H54.3074ZM54.3074 4.48781V3.82927H54.966V4.48781H54.3074ZM54.3074 5.14634V4.48781H54.966V5.14634H54.3074ZM47.0635 1.19512V0.536585H47.7221V1.19512H47.0635ZM47.0635 1.85366V1.19512H47.7221V1.85366H47.0635ZM47.0635 2.5122V1.85366H47.7221V2.5122H47.0635ZM47.0635 3.17073V2.5122H47.7221V3.17073H47.0635ZM47.0635 3.82927V3.17073H47.7221V3.82927H47.0635ZM47.0635 4.48781V3.82927H47.7221V4.48781H47.0635ZM47.0635 5.14634V4.48781H47.7221V5.14634H47.0635ZM45.7465 5.14634V4.48781H46.405V5.14634H45.7465ZM45.7465 4.48781V3.82927H46.405V4.48781H45.7465ZM45.7465 3.82927V3.17073H46.405V3.82927H45.7465ZM45.7465 3.17073V2.5122H46.405V3.17073H45.7465ZM45.7465 2.5122V1.85366H46.405V2.5122H45.7465ZM45.7465 1.85366V1.19512H46.405V1.85366H45.7465ZM44.4294 3.82927V3.17073H45.0879V3.82927H44.4294ZM44.4294 4.48781V3.82927H45.0879V4.48781H44.4294ZM44.4294 5.14634V4.48781H45.0879V5.14634H44.4294ZM45.0879 5.14634V4.48781H45.7465V5.14634H45.0879ZM45.0879 4.48781V3.82927H45.7465V4.48781H45.0879ZM45.0879 3.82927V3.17073H45.7465V3.82927H45.0879ZM45.0879 3.17073V2.5122H45.7465V3.17073H45.0879ZM45.0879 2.5122V1.85366H45.7465V2.5122H45.0879ZM46.405 1.85366V1.19512H47.0635V1.85366H46.405ZM46.405 2.5122V1.85366H47.0635V2.5122H46.405ZM46.405 3.17073V2.5122H47.0635V3.17073H46.405ZM46.405 3.82927V3.17073H47.0635V3.82927H46.405ZM46.405 4.48781V3.82927H47.0635V4.48781H46.405ZM46.405 5.14634V4.48781H47.0635V5.14634H46.405ZM51.6733 1.19512V0.536585H52.3318V1.19512H51.6733ZM50.3562 1.19512V0.536585H51.0147V1.19512H50.3562ZM49.6977 1.19512V0.536585H50.3562V1.19512H49.6977ZM49.0391 1.19512V0.536585H49.6977V1.19512H49.0391ZM48.3806 1.19512V0.536585H49.0391V1.19512H48.3806ZM47.7221 1.19512V0.536585H48.3806V1.19512H47.7221ZM47.7221 1.85366V1.19512H48.3806V1.85366H47.7221ZM48.3806 1.85366V1.19512H49.0391V1.85366H48.3806ZM49.0391 1.85366V1.19512H49.6977V1.85366H49.0391ZM49.6977 1.85366V1.19512H50.3562V1.85366H49.6977ZM50.3562 1.85366V1.19512H51.0147V1.85366H50.3562ZM51.6733 1.85366V1.19512H52.3318V1.85366H51.6733ZM51.6733 2.5122V1.85366H52.3318V2.5122H51.6733ZM50.3562 2.5122V1.85366H51.0147V2.5122H50.3562ZM49.6977 2.5122V1.85366H50.3562V2.5122H49.6977ZM49.0391 2.5122V1.85366H49.6977V2.5122H49.0391ZM48.3806 2.5122V1.85366H49.0391V2.5122H48.3806ZM47.7221 2.5122V1.85366H48.3806V2.5122H47.7221ZM47.7221 3.17073V2.5122H48.3806V3.17073H47.7221ZM48.3806 3.17073V2.5122H49.0391V3.17073H48.3806ZM49.0391 3.17073V2.5122H49.6977V3.17073H49.0391ZM49.6977 3.17073V2.5122H50.3562V3.17073H49.6977ZM50.3562 3.17073V2.5122H51.0147V3.17073H50.3562ZM51.6733 3.17073V2.5122H52.3318V3.17073H51.6733ZM51.6733 3.82927V3.17073H52.3318V3.82927H51.6733ZM47.7221 3.82927V3.17073H48.3806V3.82927H47.7221ZM45.0879 5.80488V6.46342H44.4294V5.80488H45.0879ZM45.7465 5.80488V6.46342H45.0879V5.80488H45.7465ZM45.0879 5.14634V5.80488H44.4294V5.14634H45.0879ZM47.0635 5.14634V5.80488H46.405V5.14634H47.0635ZM47.0635 5.80488V6.46342H46.405V5.80488H47.0635ZM47.7221 5.80488V6.46342H47.0635V5.80488H47.7221ZM47.7221 5.14634V5.80488H47.0635V5.14634H47.7221ZM45.7465 5.14634V5.80488H45.0879V5.14634H45.7465ZM46.405 5.14634V5.80488H45.7465V5.14634H46.405ZM46.405 5.80488V6.46342H45.7465V5.80488H46.405ZM49.0391 13.7073V14.3659H48.3806V13.7073H49.0391ZM49.6977 13.7073V14.3659H49.0391V13.7073H49.6977ZM50.3562 13.7073V14.3659H49.6977V13.7073H50.3562ZM51.0147 13.7073V14.3659H50.3562V13.7073H51.0147ZM52.3318 13.0488V13.7073H51.6733V13.0488H52.3318ZM48.3806 13.0488V13.7073H47.7221V13.0488H48.3806ZM52.9904 11.7317V12.3902H52.3318V11.7317H52.9904ZM53.6489 11.7317V12.3902H52.9904V11.7317H53.6489ZM54.3074 11.7317V12.3902H53.6489V11.7317H54.3074ZM54.966 11.7317V12.3902H54.3074V11.7317H54.966ZM55.6245 11.7317V12.3902H54.966V11.7317H55.6245ZM48.3806 3.82927V4.48781H47.7221V3.82927H48.3806ZM49.0391 3.17073V3.82927H48.3806V3.17073H49.0391ZM49.6977 3.17073V3.82927H49.0391V3.17073H49.6977ZM50.3562 3.17073V3.82927H49.6977V3.17073H50.3562ZM51.0147 3.17073V3.82927H50.3562V3.17073H51.0147ZM52.3318 3.82927V4.48781H51.6733V3.82927H52.3318ZM52.9904 5.14634V5.80488H52.3318V5.14634H52.9904ZM53.6489 5.14634V5.80488H52.9904V5.14634H53.6489ZM54.3074 5.14634V5.80488H53.6489V5.14634H54.3074ZM54.966 5.14634V5.80488H54.3074V5.14634H54.966ZM55.6245 5.14634V5.80488H54.966V5.14634H55.6245ZM51.6733 0.536585V1.19512H51.0147V0.536585H51.6733ZM51.6733 1.19512V1.85366H51.0147V1.19512H51.6733ZM51.6733 1.85366V2.5122H51.0147V1.85366H51.6733ZM51.6733 2.5122V3.17073H51.0147V2.5122H51.6733ZM51.6733 3.17073V3.82927H51.0147V3.17073H51.6733ZM51.6733 13.7073V14.3659H51.0147V13.7073H51.6733ZM51.6733 14.3659V15.0244H51.0147V14.3659H51.6733ZM51.6733 15.0244V15.6829H51.0147V15.0244H51.6733ZM51.6733 15.6829V16.3415H51.0147V15.6829H51.6733ZM51.6733 16.3415V17H51.0147V16.3415H51.6733ZM58.9043 13.7073V14.3659H58.2458V13.7073H58.9043ZM58.9043 13.0488V13.7073H58.2458V13.0488H58.9043ZM58.9043 12.3902V13.0488H58.2458V12.3902H58.9043ZM58.9043 11.7317V12.3902H58.2458V11.7317H58.9043ZM58.9043 11.0732V11.7317H58.2458V11.0732H58.9043ZM58.9043 10.4146V11.0732H58.2458V10.4146H58.9043ZM58.9043 9.7561V10.4146H58.2458V9.7561H58.9043ZM58.9043 9.09756V9.7561H58.2458V9.09756H58.9043ZM58.9043 8.43902V9.09756H58.2458V8.43902H58.9043ZM58.9043 7.78049V8.43902H58.2458V7.78049H58.9043ZM58.9043 7.12195V7.78049H58.2458V7.12195H58.9043ZM59.5629 7.12195V7.78049H58.9043V7.12195H59.5629ZM59.5629 7.78049V8.43902H58.9043V7.78049H59.5629ZM59.5629 8.43902V9.09756H58.9043V8.43902H59.5629ZM59.5629 9.09756V9.7561H58.9043V9.09756H59.5629ZM59.5629 9.7561V10.4146H58.9043V9.7561H59.5629ZM59.5629 10.4146V11.0732H58.9043V10.4146H59.5629ZM59.5629 11.0732V11.7317H58.9043V11.0732H59.5629ZM60.2214 11.7317V12.3902H59.5629V11.7317H60.2214ZM60.2214 12.3902V13.0488H59.5629V12.3902H60.2214ZM60.2214 13.0488V13.7073H59.5629V13.0488H60.2214ZM60.2214 13.7073V14.3659H59.5629V13.7073H60.2214ZM60.2214 14.3659V15.0244H59.5629V14.3659H60.2214ZM60.2214 15.0244V15.6829H59.5629V15.0244H60.2214ZM60.2214 15.6829V16.3415H59.5629V15.6829H60.2214ZM61.5385 16.3415V17H60.8799V16.3415H61.5385ZM61.5385 15.6829V16.3415H60.8799V15.6829H61.5385ZM61.5385 15.0244V15.6829H60.8799V15.0244H61.5385ZM61.5385 14.3659V15.0244H60.8799V14.3659H61.5385ZM61.5385 13.7073V14.3659H60.8799V13.7073H61.5385ZM61.5385 13.0488V13.7073H60.8799V13.0488H61.5385ZM61.5385 12.3902V13.0488H60.8799V12.3902H61.5385ZM61.5385 11.7317V12.3902H60.8799V11.7317H61.5385ZM60.8799 11.7317V12.3902H60.2214V11.7317H60.8799ZM60.8799 11.0732V11.7317H60.2214V11.0732H60.8799ZM60.8799 12.3902V13.0488H60.2214V12.3902H60.8799ZM60.8799 13.0488V13.7073H60.2214V13.0488H60.8799ZM60.8799 13.7073V14.3659H60.2214V13.7073H60.8799ZM60.8799 14.3659V15.0244H60.2214V14.3659H60.8799ZM60.8799 15.0244V15.6829H60.2214V15.0244H60.8799ZM60.8799 15.6829V16.3415H60.2214V15.6829H60.8799ZM59.5629 15.0244V15.6829H58.9043V15.0244H59.5629ZM59.5629 14.3659V15.0244H58.9043V14.3659H59.5629ZM59.5629 13.7073V14.3659H58.9043V13.7073H59.5629ZM59.5629 13.0488V13.7073H58.9043V13.0488H59.5629ZM59.5629 12.3902V13.0488H58.9043V12.3902H59.5629ZM59.5629 11.7317V12.3902H58.9043V11.7317H59.5629ZM58.9043 6.46342V7.12195H58.2458V6.46342H58.9043ZM60.8799 6.46342V7.12195H60.2214V6.46342H60.8799ZM60.8799 7.12195V7.78049H60.2214V7.12195H60.8799ZM60.8799 7.78049V8.43902H60.2214V7.78049H60.8799ZM60.8799 8.43902V9.09756H60.2214V8.43902H60.8799ZM60.8799 9.09756V9.7561H60.2214V9.09756H60.8799ZM61.5385 9.7561V10.4146H60.8799V9.7561H61.5385ZM61.5385 10.4146V11.0732H60.8799V10.4146H61.5385ZM61.5385 11.0732V11.7317H60.8799V11.0732H61.5385ZM61.5385 9.09756V9.7561H60.8799V9.09756H61.5385ZM61.5385 8.43902V9.09756H60.8799V8.43902H61.5385ZM61.5385 7.78049V8.43902H60.8799V7.78049H61.5385ZM61.5385 7.12195V7.78049H60.8799V7.12195H61.5385ZM61.5385 6.46342V7.12195H60.8799V6.46342H61.5385ZM59.5629 6.46342V7.12195H58.9043V6.46342H59.5629ZM60.2214 6.46342V7.12195H59.5629V6.46342H60.2214ZM60.2214 7.12195V7.78049H59.5629V7.12195H60.2214ZM60.2214 7.78049V8.43902H59.5629V7.78049H60.2214ZM60.2214 8.43902V9.09756H59.5629V8.43902H60.2214ZM60.2214 9.09756V9.7561H59.5629V9.09756H60.2214ZM60.2214 9.7561V10.4146H59.5629V9.7561H60.2214ZM60.2214 10.4146V11.0732H59.5629V10.4146H60.2214ZM60.2214 11.0732V11.7317H59.5629V11.0732H60.2214ZM60.8799 10.4146V11.0732H60.2214V10.4146H60.8799ZM60.8799 9.7561V10.4146H60.2214V9.7561H60.8799ZM66.8068 16.3415V17H66.1482V16.3415H66.8068ZM66.8068 15.6829V16.3415H66.1482V15.6829H66.8068ZM66.8068 15.0244V15.6829H66.1482V15.0244H66.8068ZM66.8068 14.3659V15.0244H66.1482V14.3659H66.8068ZM66.8068 13.7073V14.3659H66.1482V13.7073H66.8068ZM66.8068 13.0488V13.7073H66.1482V13.0488H66.8068ZM66.8068 12.3902V13.0488H66.1482V12.3902H66.8068ZM66.8068 11.7317V12.3902H66.1482V11.7317H66.8068ZM66.8068 11.0732V11.7317H66.1482V11.0732H66.8068ZM66.8068 10.4146V11.0732H66.1482V10.4146H66.8068ZM66.8068 9.7561V10.4146H66.1482V9.7561H66.8068ZM66.8068 9.09756V9.7561H66.1482V9.09756H66.8068ZM66.8068 8.43902V9.09756H66.1482V8.43902H66.8068ZM66.8068 7.78049V8.43902H66.1482V7.78049H66.8068ZM66.8068 7.12195V7.78049H66.1482V7.12195H66.8068ZM67.4653 7.12195V7.78049H66.8068V7.12195H67.4653ZM67.4653 7.78049V8.43902H66.8068V7.78049H67.4653ZM67.4653 8.43902V9.09756H66.8068V8.43902H67.4653ZM67.4653 9.09756V9.7561H66.8068V9.09756H67.4653ZM67.4653 9.7561V10.4146H66.8068V9.7561H67.4653ZM67.4653 10.4146V11.0732H66.8068V10.4146H67.4653ZM67.4653 11.0732V11.7317H66.8068V11.0732H67.4653ZM68.1238 11.7317V12.3902H67.4653V11.7317H68.1238ZM68.1238 12.3902V13.0488H67.4653V12.3902H68.1238ZM68.1238 13.0488V13.7073H67.4653V13.0488H68.1238ZM68.1238 13.7073V14.3659H67.4653V13.7073H68.1238ZM68.1238 14.3659V15.0244H67.4653V14.3659H68.1238ZM68.1238 15.0244V15.6829H67.4653V15.0244H68.1238ZM68.1238 15.6829V16.3415H67.4653V15.6829H68.1238ZM69.4409 13.7073V14.3659H68.7824V13.7073H69.4409ZM69.4409 13.0488V13.7073H68.7824V13.0488H69.4409ZM69.4409 12.3902V13.0488H68.7824V12.3902H69.4409ZM69.4409 11.7317V12.3902H68.7824V11.7317H69.4409ZM68.7824 11.7317V12.3902H68.1238V11.7317H68.7824ZM68.7824 11.0732V11.7317H68.1238V11.0732H68.7824ZM68.7824 12.3902V13.0488H68.1238V12.3902H68.7824ZM68.7824 13.0488V13.7073H68.1238V13.0488H68.7824ZM68.7824 13.7073V14.3659H68.1238V13.7073H68.7824ZM68.7824 14.3659V15.0244H68.1238V14.3659H68.7824ZM68.7824 15.0244V15.6829H68.1238V15.0244H68.7824ZM67.4653 15.6829V16.3415H66.8068V15.6829H67.4653ZM67.4653 15.0244V15.6829H66.8068V15.0244H67.4653ZM67.4653 14.3659V15.0244H66.8068V14.3659H67.4653ZM67.4653 13.7073V14.3659H66.8068V13.7073H67.4653ZM67.4653 13.0488V13.7073H66.8068V13.0488H67.4653ZM67.4653 12.3902V13.0488H66.8068V12.3902H67.4653ZM67.4653 11.7317V12.3902H66.8068V11.7317H67.4653ZM66.8068 6.46342V7.12195H66.1482V6.46342H66.8068ZM68.7824 6.46342V7.12195H68.1238V6.46342H68.7824ZM68.7824 7.12195V7.78049H68.1238V7.12195H68.7824ZM68.7824 7.78049V8.43902H68.1238V7.78049H68.7824ZM68.7824 8.43902V9.09756H68.1238V8.43902H68.7824ZM68.7824 9.09756V9.7561H68.1238V9.09756H68.7824ZM69.4409 9.7561V10.4146H68.7824V9.7561H69.4409ZM69.4409 10.4146V11.0732H68.7824V10.4146H69.4409ZM69.4409 11.0732V11.7317H68.7824V11.0732H69.4409ZM69.4409 9.09756V9.7561H68.7824V9.09756H69.4409ZM69.4409 8.43902V9.09756H68.7824V8.43902H69.4409ZM69.4409 7.78049V8.43902H68.7824V7.78049H69.4409ZM69.4409 7.12195V7.78049H68.7824V7.12195H69.4409ZM69.4409 6.46342V7.12195H68.7824V6.46342H69.4409ZM67.4653 6.46342V7.12195H66.8068V6.46342H67.4653ZM68.1238 6.46342V7.12195H67.4653V6.46342H68.1238ZM68.1238 7.12195V7.78049H67.4653V7.12195H68.1238ZM68.1238 7.78049V8.43902H67.4653V7.78049H68.1238ZM68.1238 8.43902V9.09756H67.4653V8.43902H68.1238ZM68.1238 9.09756V9.7561H67.4653V9.09756H68.1238ZM68.1238 9.7561V10.4146H67.4653V9.7561H68.1238ZM68.1238 10.4146V11.0732H67.4653V10.4146H68.1238ZM68.1238 11.0732V11.7317H67.4653V11.0732H68.1238ZM68.7824 10.4146V11.0732H68.1238V10.4146H68.7824ZM68.7824 9.7561V10.4146H68.1238V9.7561H68.7824ZM62.197 16.3415V17H61.5385V16.3415H62.197ZM62.8555 16.3415V17H62.197V16.3415H62.8555ZM63.5141 16.3415V17H62.8555V16.3415H63.5141ZM64.1726 16.3415V17H63.5141V16.3415H64.1726ZM65.4897 16.3415V17H64.8311V16.3415H65.4897ZM66.1482 16.3415V17H65.4897V16.3415H66.1482ZM66.1482 15.6829V16.3415H65.4897V15.6829H66.1482ZM65.4897 15.6829V16.3415H64.8311V15.6829H65.4897ZM64.1726 15.6829V16.3415H63.5141V15.6829H64.1726ZM63.5141 15.6829V16.3415H62.8555V15.6829H63.5141ZM62.8555 15.6829V16.3415H62.197V15.6829H62.8555ZM62.197 15.6829V16.3415H61.5385V15.6829H62.197ZM62.197 15.0244V15.6829H61.5385V15.0244H62.197ZM62.8555 15.0244V15.6829H62.197V15.0244H62.8555ZM63.5141 15.0244V15.6829H62.8555V15.0244H63.5141ZM64.1726 15.0244V15.6829H63.5141V15.0244H64.1726ZM65.4897 15.0244V15.6829H64.8311V15.0244H65.4897ZM66.1482 15.0244V15.6829H65.4897V15.0244H66.1482ZM66.1482 14.3659V15.0244H65.4897V14.3659H66.1482ZM65.4897 14.3659V15.0244H64.8311V14.3659H65.4897ZM64.1726 14.3659V15.0244H63.5141V14.3659H64.1726ZM63.5141 14.3659V15.0244H62.8555V14.3659H63.5141ZM62.8555 14.3659V15.0244H62.197V14.3659H62.8555ZM62.197 14.3659V15.0244H61.5385V14.3659H62.197ZM62.197 13.7073V14.3659H61.5385V13.7073H62.197ZM66.1482 13.7073V14.3659H65.4897V13.7073H66.1482ZM68.7824 3.82927V3.17073H69.4409V3.82927H68.7824ZM68.7824 4.48781V3.82927H69.4409V4.48781H68.7824ZM68.7824 5.14634V4.48781H69.4409V5.14634H68.7824ZM67.4653 5.14634V4.48781H68.1238V5.14634H67.4653ZM67.4653 4.48781V3.82927H68.1238V4.48781H67.4653ZM67.4653 3.82927V3.17073H68.1238V3.82927H67.4653ZM67.4653 3.17073V2.5122H68.1238V3.17073H67.4653ZM67.4653 2.5122V1.85366H68.1238V2.5122H67.4653ZM67.4653 1.85366V1.19512H68.1238V1.85366H67.4653ZM66.1482 1.19512V0.536585H66.8068V1.19512H66.1482ZM66.1482 1.85366V1.19512H66.8068V1.85366H66.1482ZM66.1482 2.5122V1.85366H66.8068V2.5122H66.1482ZM66.1482 3.17073V2.5122H66.8068V3.17073H66.1482ZM66.1482 3.82927V3.17073H66.8068V3.82927H66.1482ZM66.1482 4.48781V3.82927H66.8068V4.48781H66.1482ZM66.1482 5.14634V4.48781H66.8068V5.14634H66.1482ZM66.8068 5.14634V4.48781H67.4653V5.14634H66.8068ZM66.8068 4.48781V3.82927H67.4653V4.48781H66.8068ZM66.8068 3.82927V3.17073H67.4653V3.82927H66.8068ZM66.8068 3.17073V2.5122H67.4653V3.17073H66.8068ZM66.8068 2.5122V1.85366H67.4653V2.5122H66.8068ZM66.8068 1.85366V1.19512H67.4653V1.85366H66.8068ZM68.1238 2.5122V1.85366H68.7824V2.5122H68.1238ZM68.1238 3.17073V2.5122H68.7824V3.17073H68.1238ZM68.1238 3.82927V3.17073H68.7824V3.82927H68.1238ZM68.1238 4.48781V3.82927H68.7824V4.48781H68.1238ZM68.1238 5.14634V4.48781H68.7824V5.14634H68.1238ZM60.8799 1.19512V0.536585H61.5385V1.19512H60.8799ZM60.8799 1.85366V1.19512H61.5385V1.85366H60.8799ZM60.8799 2.5122V1.85366H61.5385V2.5122H60.8799ZM60.8799 3.17073V2.5122H61.5385V3.17073H60.8799ZM60.8799 3.82927V3.17073H61.5385V3.82927H60.8799ZM60.8799 4.48781V3.82927H61.5385V4.48781H60.8799ZM60.8799 5.14634V4.48781H61.5385V5.14634H60.8799ZM59.5629 5.14634V4.48781H60.2214V5.14634H59.5629ZM59.5629 4.48781V3.82927H60.2214V4.48781H59.5629ZM59.5629 3.82927V3.17073H60.2214V3.82927H59.5629ZM59.5629 3.17073V2.5122H60.2214V3.17073H59.5629ZM59.5629 2.5122V1.85366H60.2214V2.5122H59.5629ZM59.5629 1.85366V1.19512H60.2214V1.85366H59.5629ZM58.2458 3.82927V3.17073H58.9043V3.82927H58.2458ZM58.2458 4.48781V3.82927H58.9043V4.48781H58.2458ZM58.2458 5.14634V4.48781H58.9043V5.14634H58.2458ZM58.9043 5.14634V4.48781H59.5629V5.14634H58.9043ZM58.9043 4.48781V3.82927H59.5629V4.48781H58.9043ZM58.9043 3.82927V3.17073H59.5629V3.82927H58.9043ZM58.9043 3.17073V2.5122H59.5629V3.17073H58.9043ZM58.9043 2.5122V1.85366H59.5629V2.5122H58.9043ZM60.2214 1.85366V1.19512H60.8799V1.85366H60.2214ZM60.2214 2.5122V1.85366H60.8799V2.5122H60.2214ZM60.2214 3.17073V2.5122H60.8799V3.17073H60.2214ZM60.2214 3.82927V3.17073H60.8799V3.82927H60.2214ZM60.2214 4.48781V3.82927H60.8799V4.48781H60.2214ZM60.2214 5.14634V4.48781H60.8799V5.14634H60.2214ZM65.4897 1.19512V0.536585H66.1482V1.19512H65.4897ZM64.8311 1.19512V0.536585H65.4897V1.19512H64.8311ZM63.5141 1.19512V0.536585H64.1726V1.19512H63.5141ZM62.8555 1.19512V0.536585H63.5141V1.19512H62.8555ZM62.197 1.19512V0.536585H62.8555V1.19512H62.197ZM61.5385 1.19512V0.536585H62.197V1.19512H61.5385ZM61.5385 1.85366V1.19512H62.197V1.85366H61.5385ZM62.197 1.85366V1.19512H62.8555V1.85366H62.197ZM62.8555 1.85366V1.19512H63.5141V1.85366H62.8555ZM63.5141 1.85366V1.19512H64.1726V1.85366H63.5141ZM64.8311 1.85366V1.19512H65.4897V1.85366H64.8311ZM65.4897 1.85366V1.19512H66.1482V1.85366H65.4897ZM65.4897 2.5122V1.85366H66.1482V2.5122H65.4897ZM64.8311 2.5122V1.85366H65.4897V2.5122H64.8311ZM63.5141 2.5122V1.85366H64.1726V2.5122H63.5141ZM62.8555 2.5122V1.85366H63.5141V2.5122H62.8555ZM62.197 2.5122V1.85366H62.8555V2.5122H62.197ZM61.5385 2.5122V1.85366H62.197V2.5122H61.5385ZM61.5385 3.17073V2.5122H62.197V3.17073H61.5385ZM62.197 3.17073V2.5122H62.8555V3.17073H62.197ZM62.8555 3.17073V2.5122H63.5141V3.17073H62.8555ZM63.5141 3.17073V2.5122H64.1726V3.17073H63.5141ZM64.8311 3.17073V2.5122H65.4897V3.17073H64.8311ZM65.4897 3.17073V2.5122H66.1482V3.17073H65.4897ZM65.4897 3.82927V3.17073H66.1482V3.82927H65.4897ZM61.5385 3.82927V3.17073H62.197V3.82927H61.5385ZM58.9043 5.80488V6.46342H58.2458V5.80488H58.9043ZM59.5629 5.80488V6.46342H58.9043V5.80488H59.5629ZM58.9043 5.14634V5.80488H58.2458V5.14634H58.9043ZM60.8799 5.14634V5.80488H60.2214V5.14634H60.8799ZM60.8799 5.80488V6.46342H60.2214V5.80488H60.8799ZM61.5385 5.80488V6.46342H60.8799V5.80488H61.5385ZM61.5385 5.14634V5.80488H60.8799V5.14634H61.5385ZM59.5629 5.14634V5.80488H58.9043V5.14634H59.5629ZM60.2214 5.14634V5.80488H59.5629V5.14634H60.2214ZM60.2214 5.80488V6.46342H59.5629V5.80488H60.2214ZM66.8068 5.80488V6.46342H66.1482V5.80488H66.8068ZM67.4653 5.80488V6.46342H66.8068V5.80488H67.4653ZM66.8068 5.14634V5.80488H66.1482V5.14634H66.8068ZM68.7824 5.14634V5.80488H68.1238V5.14634H68.7824ZM68.7824 5.80488V6.46342H68.1238V5.80488H68.7824ZM69.4409 5.80488V6.46342H68.7824V5.80488H69.4409ZM69.4409 5.14634V5.80488H68.7824V5.14634H69.4409ZM67.4653 5.14634V5.80488H66.8068V5.14634H67.4653ZM68.1238 5.14634V5.80488H67.4653V5.14634H68.1238ZM68.1238 5.80488V6.46342H67.4653V5.80488H68.1238ZM62.8555 13.7073V14.3659H62.197V13.7073H62.8555ZM63.5141 13.7073V14.3659H62.8555V13.7073H63.5141ZM64.1726 13.7073V14.3659H63.5141V13.7073H64.1726ZM65.4897 13.7073V14.3659H64.8311V13.7073H65.4897ZM66.1482 13.0488V13.7073H65.4897V13.0488H66.1482ZM62.197 13.0488V13.7073H61.5385V13.0488H62.197ZM62.8555 3.17073V3.82927H62.197V3.17073H62.8555ZM63.5141 3.17073V3.82927H62.8555V3.17073H63.5141ZM64.1726 3.17073V3.82927H63.5141V3.17073H64.1726ZM65.4897 3.17073V3.82927H64.8311V3.17073H65.4897ZM66.1482 3.82927V4.48781H65.4897V3.82927H66.1482ZM62.197 3.82927V4.48781H61.5385V3.82927H62.197ZM64.8311 0.536585V1.19512H64.1726V0.536585H64.8311ZM64.8311 1.19512V1.85366H64.1726V1.19512H64.8311ZM64.8311 1.85366V2.5122H64.1726V1.85366H64.8311ZM64.8311 2.5122V3.17073H64.1726V2.5122H64.8311ZM64.8311 3.17073V3.82927H64.1726V3.17073H64.8311ZM64.8311 13.7073V14.3659H64.1726V13.7073H64.8311ZM64.8311 14.3659V15.0244H64.1726V14.3659H64.8311ZM64.8311 15.0244V15.6829H64.1726V15.0244H64.8311ZM64.8311 15.6829V16.3415H64.1726V15.6829H64.8311ZM64.8311 16.3415V17H64.1726V16.3415H64.8311ZM72.7207 16.3415V17H72.0622V16.3415H72.7207ZM72.7207 15.6829V16.3415H72.0622V15.6829H72.7207ZM72.7207 15.0244V15.6829H72.0622V15.0244H72.7207ZM72.7207 14.3659V15.0244H72.0622V14.3659H72.7207ZM72.7207 13.7073V14.3659H72.0622V13.7073H72.7207ZM72.7207 13.0488V13.7073H72.0622V13.0488H72.7207ZM72.7207 12.3902V13.0488H72.0622V12.3902H72.7207ZM72.7207 11.7317V12.3902H72.0622V11.7317H72.7207ZM72.7207 11.0732V11.7317H72.0622V11.0732H72.7207ZM72.7207 10.4146V11.0732H72.0622V10.4146H72.7207ZM72.7207 9.7561V10.4146H72.0622V9.7561H72.7207ZM72.7207 9.09756V9.7561H72.0622V9.09756H72.7207ZM72.7207 8.43902V9.09756H72.0622V8.43902H72.7207ZM72.7207 7.78049V8.43902H72.0622V7.78049H72.7207ZM72.7207 7.12195V7.78049H72.0622V7.12195H72.7207ZM73.3793 7.12195V7.78049H72.7207V7.12195H73.3793ZM73.3793 7.78049V8.43902H72.7207V7.78049H73.3793ZM73.3793 8.43902V9.09756H72.7207V8.43902H73.3793ZM73.3793 9.09756V9.7561H72.7207V9.09756H73.3793ZM73.3793 9.7561V10.4146H72.7207V9.7561H73.3793ZM73.3793 10.4146V11.0732H72.7207V10.4146H73.3793ZM73.3793 11.0732V11.7317H72.7207V11.0732H73.3793ZM74.0378 11.7317V12.3902H73.3793V11.7317H74.0378ZM74.0378 12.3902V13.0488H73.3793V12.3902H74.0378ZM74.0378 13.0488V13.7073H73.3793V13.0488H74.0378ZM74.0378 13.7073V14.3659H73.3793V13.7073H74.0378ZM74.0378 14.3659V15.0244H73.3793V14.3659H74.0378ZM74.0378 15.0244V15.6829H73.3793V15.0244H74.0378ZM74.0378 15.6829V16.3415H73.3793V15.6829H74.0378ZM74.0378 16.3415V17H73.3793V16.3415H74.0378ZM74.6963 16.3415V17H74.0378V16.3415H74.6963ZM75.3549 16.3415V17H74.6963V16.3415H75.3549ZM75.3549 15.6829V16.3415H74.6963V15.6829H75.3549ZM75.3549 15.0244V15.6829H74.6963V15.0244H75.3549ZM75.3549 14.3659V15.0244H74.6963V14.3659H75.3549ZM75.3549 13.7073V14.3659H74.6963V13.7073H75.3549ZM75.3549 13.0488V13.7073H74.6963V13.0488H75.3549ZM75.3549 12.3902V13.0488H74.6963V12.3902H75.3549ZM75.3549 11.7317V12.3902H74.6963V11.7317H75.3549ZM74.6963 11.7317V12.3902H74.0378V11.7317H74.6963ZM74.6963 11.0732V11.7317H74.0378V11.0732H74.6963ZM74.6963 12.3902V13.0488H74.0378V12.3902H74.6963ZM74.6963 13.0488V13.7073H74.0378V13.0488H74.6963ZM74.6963 13.7073V14.3659H74.0378V13.7073H74.6963ZM74.6963 14.3659V15.0244H74.0378V14.3659H74.6963ZM74.6963 15.0244V15.6829H74.0378V15.0244H74.6963ZM74.6963 15.6829V16.3415H74.0378V15.6829H74.6963ZM73.3793 16.3415V17H72.7207V16.3415H73.3793ZM73.3793 15.6829V16.3415H72.7207V15.6829H73.3793ZM73.3793 15.0244V15.6829H72.7207V15.0244H73.3793ZM73.3793 14.3659V15.0244H72.7207V14.3659H73.3793ZM73.3793 13.7073V14.3659H72.7207V13.7073H73.3793ZM73.3793 13.0488V13.7073H72.7207V13.0488H73.3793ZM73.3793 12.3902V13.0488H72.7207V12.3902H73.3793ZM73.3793 11.7317V12.3902H72.7207V11.7317H73.3793ZM72.7207 0.536585V1.19512H72.0622V0.536585H72.7207ZM72.7207 1.19512V1.85366H72.0622V1.19512H72.7207ZM72.7207 1.85366V2.5122H72.0622V1.85366H72.7207ZM72.7207 2.5122V3.17073H72.0622V2.5122H72.7207ZM72.7207 3.17073V3.82927H72.0622V3.17073H72.7207ZM72.7207 3.82927V4.48781H72.0622V3.82927H72.7207ZM72.7207 4.48781V5.14634H72.0622V4.48781H72.7207ZM72.7207 5.14634V5.80488H72.0622V5.14634H72.7207ZM72.7207 5.80488V6.46342H72.0622V5.80488H72.7207ZM72.7207 6.46342V7.12195H72.0622V6.46342H72.7207ZM74.6963 0.536585V1.19512H74.0378V0.536585H74.6963ZM74.6963 1.19512V1.85366H74.0378V1.19512H74.6963ZM74.6963 1.85366V2.5122H74.0378V1.85366H74.6963ZM74.6963 2.5122V3.17073H74.0378V2.5122H74.6963ZM74.6963 3.17073V3.82927H74.0378V3.17073H74.6963ZM74.6963 3.82927V4.48781H74.0378V3.82927H74.6963ZM74.6963 5.14634V5.80488H74.0378V5.14634H74.6963ZM74.6963 5.80488V6.46342H74.0378V5.80488H74.6963ZM74.6963 6.46342V7.12195H74.0378V6.46342H74.6963ZM74.6963 7.12195V7.78049H74.0378V7.12195H74.6963ZM74.6963 7.78049V8.43902H74.0378V7.78049H74.6963ZM74.6963 8.43902V9.09756H74.0378V8.43902H74.6963ZM74.6963 9.09756V9.7561H74.0378V9.09756H74.6963ZM75.3549 9.7561V10.4146H74.6963V9.7561H75.3549ZM75.3549 10.4146V11.0732H74.6963V10.4146H75.3549ZM75.3549 11.0732V11.7317H74.6963V11.0732H75.3549ZM75.3549 9.09756V9.7561H74.6963V9.09756H75.3549ZM75.3549 8.43902V9.09756H74.6963V8.43902H75.3549ZM75.3549 7.78049V8.43902H74.6963V7.78049H75.3549ZM75.3549 7.12195V7.78049H74.6963V7.12195H75.3549ZM75.3549 6.46342V7.12195H74.6963V6.46342H75.3549ZM75.3549 5.80488V6.46342H74.6963V5.80488H75.3549ZM75.3549 5.14634V5.80488H74.6963V5.14634H75.3549ZM75.3549 4.48781V5.14634H74.6963V4.48781H75.3549ZM75.3549 3.82927V4.48781H74.6963V3.82927H75.3549ZM75.3549 3.17073V3.82927H74.6963V3.17073H75.3549ZM74.6963 4.48781V5.14634H74.0378V4.48781H74.6963ZM75.3549 2.5122V3.17073H74.6963V2.5122H75.3549ZM75.3549 1.85366V2.5122H74.6963V1.85366H75.3549ZM75.3549 1.19512V1.85366H74.6963V1.19512H75.3549ZM75.3549 0.536585V1.19512H74.6963V0.536585H75.3549ZM74.0378 0.536585V1.19512H73.3793V0.536585H74.0378ZM73.3793 0.536585V1.19512H72.7207V0.536585H73.3793ZM73.3793 1.19512V1.85366H72.7207V1.19512H73.3793ZM74.0378 1.19512V1.85366H73.3793V1.19512H74.0378ZM74.0378 1.85366V2.5122H73.3793V1.85366H74.0378ZM74.0378 2.5122V3.17073H73.3793V2.5122H74.0378ZM74.0378 3.17073V3.82927H73.3793V3.17073H74.0378ZM74.0378 3.82927V4.48781H73.3793V3.82927H74.0378ZM74.0378 4.48781V5.14634H73.3793V4.48781H74.0378ZM74.0378 5.14634V5.80488H73.3793V5.14634H74.0378ZM73.3793 5.80488V6.46342H72.7207V5.80488H73.3793ZM73.3793 6.46342V7.12195H72.7207V6.46342H73.3793ZM73.3793 5.14634V5.80488H72.7207V5.14634H73.3793ZM73.3793 4.48781V5.14634H72.7207V4.48781H73.3793ZM73.3793 3.82927V4.48781H72.7207V3.82927H73.3793ZM73.3793 3.17073V3.82927H72.7207V3.17073H73.3793ZM73.3793 2.5122V3.17073H72.7207V2.5122H73.3793ZM73.3793 1.85366V2.5122H72.7207V1.85366H73.3793ZM74.0378 5.80488V6.46342H73.3793V5.80488H74.0378ZM74.0378 6.46342V7.12195H73.3793V6.46342H74.0378ZM74.0378 7.12195V7.78049H73.3793V7.12195H74.0378ZM74.0378 7.78049V8.43902H73.3793V7.78049H74.0378ZM74.0378 8.43902V9.09756H73.3793V8.43902H74.0378ZM74.0378 9.09756V9.7561H73.3793V9.09756H74.0378ZM74.0378 9.7561V10.4146H73.3793V9.7561H74.0378ZM74.0378 10.4146V11.0732H73.3793V10.4146H74.0378ZM74.0378 11.0732V11.7317H73.3793V11.0732H74.0378ZM74.6963 10.4146V11.0732H74.0378V10.4146H74.6963ZM74.6963 9.7561V10.4146H74.0378V9.7561H74.6963ZM76.0134 0.536585V1.19512H75.3549V0.536585H76.0134ZM76.6719 0.536585V1.19512H76.0134V0.536585H76.6719ZM76.6719 1.19512V1.85366H76.0134V1.19512H76.6719ZM76.0134 1.19512V1.85366H75.3549V1.19512H76.0134ZM76.0134 1.85366V2.5122H75.3549V1.85366H76.0134ZM76.6719 1.85366V2.5122H76.0134V1.85366H76.6719ZM76.6719 2.5122V3.17073H76.0134V2.5122H76.6719ZM76.0134 2.5122V3.17073H75.3549V2.5122H76.0134ZM76.0134 3.17073V3.82927H75.3549V3.17073H76.0134ZM76.6719 3.17073V3.82927H76.0134V3.17073H76.6719ZM76.0134 16.3415V17H75.3549V16.3415H76.0134ZM76.6719 16.3415V17H76.0134V16.3415H76.6719ZM76.6719 15.6829V16.3415H76.0134V15.6829H76.6719ZM76.6719 15.0244V15.6829H76.0134V15.0244H76.6719ZM76.6719 14.3659V15.0244H76.0134V14.3659H76.6719ZM76.6719 13.7073V14.3659H76.0134V13.7073H76.6719ZM76.0134 13.7073V14.3659H75.3549V13.7073H76.0134ZM76.0134 14.3659V15.0244H75.3549V14.3659H76.0134ZM76.0134 15.0244V15.6829H75.3549V15.0244H76.0134ZM76.0134 15.6829V16.3415H75.3549V15.6829H76.0134ZM79.9646 5.80488V6.46342H79.3061V5.80488H79.9646ZM79.9646 5.14634V5.80488H79.3061V5.14634H79.9646ZM79.9646 4.48781V5.14634H79.3061V4.48781H79.9646ZM79.3061 3.82927V4.48781H78.6476V3.82927H79.3061ZM78.6476 3.17073V3.82927H77.989V3.17073H78.6476ZM77.989 3.17073V3.82927H77.3305V3.17073H77.989ZM77.3305 3.17073V3.82927H76.6719V3.17073H77.3305ZM77.3305 0.536585V1.19512H76.6719V0.536585H77.3305ZM77.989 0.536585V1.19512H77.3305V0.536585H77.989ZM78.6476 0.536585V1.19512H77.989V0.536585H78.6476ZM79.3061 0.536585V1.19512H78.6476V0.536585H79.3061ZM79.3061 1.19512V1.85366H78.6476V1.19512H79.3061ZM79.3061 1.85366V2.5122H78.6476V1.85366H79.3061ZM79.3061 2.5122V3.17073H78.6476V2.5122H79.3061ZM78.6476 2.5122V3.17073H77.989V2.5122H78.6476ZM78.6476 1.85366V2.5122H77.989V1.85366H78.6476ZM77.989 1.85366V2.5122H77.3305V1.85366H77.989ZM77.3305 1.85366V2.5122H76.6719V1.85366H77.3305ZM77.3305 1.19512V1.85366H76.6719V1.19512H77.3305ZM77.989 1.19512V1.85366H77.3305V1.19512H77.989ZM78.6476 1.19512V1.85366H77.989V1.19512H78.6476ZM77.3305 2.5122V3.17073H76.6719V2.5122H77.3305ZM77.989 2.5122V3.17073H77.3305V2.5122H77.989ZM79.3061 3.17073V3.82927H78.6476V3.17073H79.3061ZM79.9646 3.82927V4.48781H79.3061V3.82927H79.9646ZM79.9646 3.17073V3.82927H79.3061V3.17073H79.9646ZM79.9646 2.5122V3.17073H79.3061V2.5122H79.9646ZM79.9646 1.85366V2.5122H79.3061V1.85366H79.9646ZM79.9646 1.19512V1.85366H79.3061V1.19512H79.9646ZM79.9646 0.536585V1.19512H79.3061V0.536585H79.9646ZM79.9646 6.46342V7.12195H79.3061V6.46342H79.9646ZM79.9646 7.12195V7.78049H79.3061V7.12195H79.9646ZM79.9646 7.78049V8.43902H79.3061V7.78049H79.9646ZM79.9646 8.43902V9.09756H79.3061V8.43902H79.9646ZM79.9646 9.09756V9.7561H79.3061V9.09756H79.9646ZM79.9646 9.7561V10.4146H79.3061V9.7561H79.9646ZM79.9646 11.0732V11.7317H79.3061V11.0732H79.9646ZM79.9646 10.4146V11.0732H79.3061V10.4146H79.9646ZM79.9646 11.7317V12.3902H79.3061V11.7317H79.9646ZM79.9646 12.3902V13.0488H79.3061V12.3902H79.9646ZM77.3305 13.7073V14.3659H76.6719V13.7073H77.3305ZM77.989 13.7073V14.3659H77.3305V13.7073H77.989ZM78.6476 13.7073V14.3659H77.989V13.7073H78.6476ZM79.3061 13.0488V13.7073H78.6476V13.0488H79.3061ZM79.9646 13.0488V13.7073H79.3061V13.0488H79.9646ZM79.9646 13.7073V14.3659H79.3061V13.7073H79.9646ZM79.3061 13.7073V14.3659H78.6476V13.7073H79.3061ZM79.9646 14.3659V15.0244H79.3061V14.3659H79.9646ZM79.9646 15.0244V15.6829H79.3061V15.0244H79.9646ZM79.9646 15.6829V16.3415H79.3061V15.6829H79.9646ZM79.9646 16.3415V17H79.3061V16.3415H79.9646ZM79.3061 16.3415V17H78.6476V16.3415H79.3061ZM79.3061 15.6829V16.3415H78.6476V15.6829H79.3061ZM78.6476 15.6829V16.3415H77.989V15.6829H78.6476ZM77.989 16.3415V17H77.3305V16.3415H77.989ZM77.3305 16.3415V17H76.6719V16.3415H77.3305ZM78.6476 16.3415V17H77.989V16.3415H78.6476ZM77.989 15.6829V16.3415H77.3305V15.6829H77.989ZM77.3305 15.6829V16.3415H76.6719V15.6829H77.3305ZM77.3305 15.0244V15.6829H76.6719V15.0244H77.3305ZM77.989 15.0244V15.6829H77.3305V15.0244H77.989ZM78.6476 15.0244V15.6829H77.989V15.0244H78.6476ZM79.3061 15.0244V15.6829H78.6476V15.0244H79.3061ZM79.3061 14.3659V15.0244H78.6476V14.3659H79.3061ZM78.6476 14.3659V15.0244H77.989V14.3659H78.6476ZM77.989 14.3659V15.0244H77.3305V14.3659H77.989ZM77.3305 14.3659V15.0244H76.6719V14.3659H77.3305ZM80.6232 1.19512V1.85366H79.9646V1.19512H80.6232ZM81.2817 1.19512V1.85366H80.6232V1.19512H81.2817ZM81.2817 1.85366V2.5122H80.6232V1.85366H81.2817ZM81.9402 1.85366V2.5122H81.2817V1.85366H81.9402ZM81.9402 2.5122V3.17073H81.2817V2.5122H81.9402ZM81.9402 3.17073V3.82927H81.2817V3.17073H81.9402ZM82.5988 3.17073V3.82927H81.9402V3.17073H82.5988ZM82.5988 3.82927V4.48781H81.9402V3.82927H82.5988ZM82.5988 4.48781V5.14634H81.9402V4.48781H82.5988ZM82.5988 5.14634V5.80488H81.9402V5.14634H82.5988ZM82.5988 5.80488V6.46342H81.9402V5.80488H82.5988ZM82.5988 6.46342V7.12195H81.9402V6.46342H82.5988ZM82.5988 7.12195V7.78049H81.9402V7.12195H82.5988ZM81.9402 7.78049V8.43902H81.2817V7.78049H81.9402ZM81.2817 8.43902V9.09756H80.6232V8.43902H81.2817ZM81.9402 9.09756V9.7561H81.2817V9.09756H81.9402ZM82.5988 9.7561V10.4146H81.9402V9.7561H82.5988ZM80.6232 15.6829V16.3415H79.9646V15.6829H80.6232ZM81.2817 15.6829V16.3415H80.6232V15.6829H81.2817ZM81.9402 15.0244V15.6829H81.2817V15.0244H81.9402ZM82.5988 13.7073V14.3659H81.9402V13.7073H82.5988ZM81.2817 15.0244V15.6829H80.6232V15.0244H81.2817ZM81.2817 14.3659V15.0244H80.6232V14.3659H81.2817ZM81.9402 14.3659V15.0244H81.2817V14.3659H81.9402ZM82.5988 13.0488V13.7073H81.9402V13.0488H82.5988ZM82.5988 12.3902V13.0488H81.9402V12.3902H82.5988ZM82.5988 11.7317V12.3902H81.9402V11.7317H82.5988ZM82.5988 11.0732V11.7317H81.9402V11.0732H82.5988ZM82.5988 10.4146V11.0732H81.9402V10.4146H82.5988ZM80.6232 9.09756V9.7561H79.9646V9.09756H80.6232ZM81.2817 9.09756V9.7561H80.6232V9.09756H81.2817ZM81.2817 9.7561V10.4146H80.6232V9.7561H81.2817ZM80.6232 9.7561V10.4146H79.9646V9.7561H80.6232ZM81.9402 9.7561V10.4146H81.2817V9.7561H81.9402ZM81.9402 10.4146V11.0732H81.2817V10.4146H81.9402ZM81.9402 11.0732V11.7317H81.2817V11.0732H81.9402ZM81.9402 11.7317V12.3902H81.2817V11.7317H81.9402ZM81.9402 12.3902V13.0488H81.2817V12.3902H81.9402ZM81.9402 13.0488V13.7073H81.2817V13.0488H81.9402ZM81.9402 13.7073V14.3659H81.2817V13.7073H81.9402ZM81.2817 13.7073V14.3659H80.6232V13.7073H81.2817ZM81.2817 13.0488V13.7073H80.6232V13.0488H81.2817ZM81.2817 12.3902V13.0488H80.6232V12.3902H81.2817ZM81.2817 11.7317V12.3902H80.6232V11.7317H81.2817ZM81.2817 11.0732V11.7317H80.6232V11.0732H81.2817ZM81.2817 10.4146V11.0732H80.6232V10.4146H81.2817ZM80.6232 10.4146V11.0732H79.9646V10.4146H80.6232ZM80.6232 11.0732V11.7317H79.9646V11.0732H80.6232ZM80.6232 11.7317V12.3902H79.9646V11.7317H80.6232ZM80.6232 12.3902V13.0488H79.9646V12.3902H80.6232ZM80.6232 13.0488V13.7073H79.9646V13.0488H80.6232ZM80.6232 13.7073V14.3659H79.9646V13.7073H80.6232ZM80.6232 14.3659V15.0244H79.9646V14.3659H80.6232ZM80.6232 15.0244V15.6829H79.9646V15.0244H80.6232ZM80.6232 1.85366V2.5122H79.9646V1.85366H80.6232ZM80.6232 2.5122V3.17073H79.9646V2.5122H80.6232ZM80.6232 3.17073V3.82927H79.9646V3.17073H80.6232ZM80.6232 3.82927V4.48781H79.9646V3.82927H80.6232ZM80.6232 4.48781V5.14634H79.9646V4.48781H80.6232ZM80.6232 5.14634V5.80488H79.9646V5.14634H80.6232ZM80.6232 5.80488V6.46342H79.9646V5.80488H80.6232ZM80.6232 6.46342V7.12195H79.9646V6.46342H80.6232ZM80.6232 7.12195V7.78049H79.9646V7.12195H80.6232ZM80.6232 7.78049V8.43902H79.9646V7.78049H80.6232ZM80.6232 8.43902V9.09756H79.9646V8.43902H80.6232ZM81.2817 7.78049V8.43902H80.6232V7.78049H81.2817ZM81.2817 7.12195V7.78049H80.6232V7.12195H81.2817ZM81.2817 6.46342V7.12195H80.6232V6.46342H81.2817ZM81.2817 5.80488V6.46342H80.6232V5.80488H81.2817ZM81.2817 5.14634V5.80488H80.6232V5.14634H81.2817ZM81.2817 4.48781V5.14634H80.6232V4.48781H81.2817ZM81.2817 3.82927V4.48781H80.6232V3.82927H81.2817ZM81.2817 3.17073V3.82927H80.6232V3.17073H81.2817ZM81.2817 2.5122V3.17073H80.6232V2.5122H81.2817ZM81.9402 3.82927V4.48781H81.2817V3.82927H81.9402ZM81.9402 4.48781V5.14634H81.2817V4.48781H81.9402ZM81.9402 5.14634V5.80488H81.2817V5.14634H81.9402ZM81.9402 5.80488V6.46342H81.2817V5.80488H81.9402ZM81.9402 6.46342V7.12195H81.2817V6.46342H81.9402ZM81.9402 7.12195V7.78049H81.2817V7.12195H81.9402ZM82.5988 7.78049V8.43902H81.9402V7.78049H82.5988ZM82.5988 8.43902V9.09756H81.9402V8.43902H82.5988ZM82.5988 9.09756V9.7561H81.9402V9.09756H82.5988ZM81.9402 8.43902V9.09756H81.2817V8.43902H81.9402ZM85.9043 16.3415V17H85.2458V16.3415H85.9043ZM85.9043 15.6829V16.3415H85.2458V15.6829H85.9043ZM85.9043 15.0244V15.6829H85.2458V15.0244H85.9043ZM85.9043 14.3659V15.0244H85.2458V14.3659H85.9043ZM85.9043 13.7073V14.3659H85.2458V13.7073H85.9043ZM85.9043 13.0488V13.7073H85.2458V13.0488H85.9043ZM85.9043 12.3902V13.0488H85.2458V12.3902H85.9043ZM85.9043 11.7317V12.3902H85.2458V11.7317H85.9043ZM85.9043 11.0732V11.7317H85.2458V11.0732H85.9043ZM85.9043 10.4146V11.0732H85.2458V10.4146H85.9043ZM85.9043 9.7561V10.4146H85.2458V9.7561H85.9043ZM85.9043 9.09756V9.7561H85.2458V9.09756H85.9043ZM85.9043 8.43902V9.09756H85.2458V8.43902H85.9043ZM85.9043 7.78049V8.43902H85.2458V7.78049H85.9043ZM85.9043 7.12195V7.78049H85.2458V7.12195H85.9043ZM86.5629 7.12195V7.78049H85.9043V7.12195H86.5629ZM86.5629 7.78049V8.43902H85.9043V7.78049H86.5629ZM86.5629 8.43902V9.09756H85.9043V8.43902H86.5629ZM86.5629 9.09756V9.7561H85.9043V9.09756H86.5629ZM86.5629 9.7561V10.4146H85.9043V9.7561H86.5629ZM86.5629 10.4146V11.0732H85.9043V10.4146H86.5629ZM86.5629 11.0732V11.7317H85.9043V11.0732H86.5629ZM87.2214 11.7317V12.3902H86.5629V11.7317H87.2214ZM87.2214 12.3902V13.0488H86.5629V12.3902H87.2214ZM87.2214 13.0488V13.7073H86.5629V13.0488H87.2214ZM87.2214 13.7073V14.3659H86.5629V13.7073H87.2214ZM87.2214 14.3659V15.0244H86.5629V14.3659H87.2214ZM87.2214 15.0244V15.6829H86.5629V15.0244H87.2214ZM87.2214 15.6829V16.3415H86.5629V15.6829H87.2214ZM87.2214 16.3415V17H86.5629V16.3415H87.2214ZM87.8799 16.3415V17H87.2214V16.3415H87.8799ZM88.5385 16.3415V17H87.8799V16.3415H88.5385ZM88.5385 15.6829V16.3415H87.8799V15.6829H88.5385ZM88.5385 15.0244V15.6829H87.8799V15.0244H88.5385ZM88.5385 14.3659V15.0244H87.8799V14.3659H88.5385ZM88.5385 13.7073V14.3659H87.8799V13.7073H88.5385ZM88.5385 13.0488V13.7073H87.8799V13.0488H88.5385ZM88.5385 12.3902V13.0488H87.8799V12.3902H88.5385ZM88.5385 11.7317V12.3902H87.8799V11.7317H88.5385ZM87.8799 11.7317V12.3902H87.2214V11.7317H87.8799ZM87.8799 11.0732V11.7317H87.2214V11.0732H87.8799ZM87.8799 12.3902V13.0488H87.2214V12.3902H87.8799ZM87.8799 13.0488V13.7073H87.2214V13.0488H87.8799ZM87.8799 13.7073V14.3659H87.2214V13.7073H87.8799ZM87.8799 14.3659V15.0244H87.2214V14.3659H87.8799ZM87.8799 15.0244V15.6829H87.2214V15.0244H87.8799ZM87.8799 15.6829V16.3415H87.2214V15.6829H87.8799ZM86.5629 16.3415V17H85.9043V16.3415H86.5629ZM86.5629 15.6829V16.3415H85.9043V15.6829H86.5629ZM86.5629 15.0244V15.6829H85.9043V15.0244H86.5629ZM86.5629 14.3659V15.0244H85.9043V14.3659H86.5629ZM86.5629 13.7073V14.3659H85.9043V13.7073H86.5629ZM86.5629 13.0488V13.7073H85.9043V13.0488H86.5629ZM86.5629 12.3902V13.0488H85.9043V12.3902H86.5629ZM86.5629 11.7317V12.3902H85.9043V11.7317H86.5629ZM85.9043 0.536585V1.19512H85.2458V0.536585H85.9043ZM85.9043 1.19512V1.85366H85.2458V1.19512H85.9043ZM85.9043 1.85366V2.5122H85.2458V1.85366H85.9043ZM85.9043 2.5122V3.17073H85.2458V2.5122H85.9043ZM85.9043 3.17073V3.82927H85.2458V3.17073H85.9043ZM85.9043 3.82927V4.48781H85.2458V3.82927H85.9043ZM85.9043 4.48781V5.14634H85.2458V4.48781H85.9043ZM85.9043 5.14634V5.80488H85.2458V5.14634H85.9043ZM85.9043 5.80488V6.46342H85.2458V5.80488H85.9043ZM85.9043 6.46342V7.12195H85.2458V6.46342H85.9043ZM87.8799 0.536585V1.19512H87.2214V0.536585H87.8799ZM87.8799 1.19512V1.85366H87.2214V1.19512H87.8799ZM87.8799 1.85366V2.5122H87.2214V1.85366H87.8799ZM87.8799 2.5122V3.17073H87.2214V2.5122H87.8799ZM87.8799 3.17073V3.82927H87.2214V3.17073H87.8799ZM87.8799 3.82927V4.48781H87.2214V3.82927H87.8799ZM87.8799 5.14634V5.80488H87.2214V5.14634H87.8799ZM87.8799 5.80488V6.46342H87.2214V5.80488H87.8799ZM87.8799 6.46342V7.12195H87.2214V6.46342H87.8799ZM87.8799 7.12195V7.78049H87.2214V7.12195H87.8799ZM87.8799 7.78049V8.43902H87.2214V7.78049H87.8799ZM87.8799 8.43902V9.09756H87.2214V8.43902H87.8799ZM87.8799 9.09756V9.7561H87.2214V9.09756H87.8799ZM88.5385 9.7561V10.4146H87.8799V9.7561H88.5385ZM88.5385 10.4146V11.0732H87.8799V10.4146H88.5385ZM88.5385 11.0732V11.7317H87.8799V11.0732H88.5385ZM88.5385 9.09756V9.7561H87.8799V9.09756H88.5385ZM88.5385 8.43902V9.09756H87.8799V8.43902H88.5385ZM88.5385 7.78049V8.43902H87.8799V7.78049H88.5385ZM88.5385 7.12195V7.78049H87.8799V7.12195H88.5385ZM88.5385 6.46342V7.12195H87.8799V6.46342H88.5385ZM88.5385 5.80488V6.46342H87.8799V5.80488H88.5385ZM88.5385 5.14634V5.80488H87.8799V5.14634H88.5385ZM88.5385 4.48781V5.14634H87.8799V4.48781H88.5385ZM88.5385 3.82927V4.48781H87.8799V3.82927H88.5385ZM88.5385 3.17073V3.82927H87.8799V3.17073H88.5385ZM87.8799 4.48781V5.14634H87.2214V4.48781H87.8799ZM88.5385 2.5122V3.17073H87.8799V2.5122H88.5385ZM88.5385 1.85366V2.5122H87.8799V1.85366H88.5385ZM88.5385 1.19512V1.85366H87.8799V1.19512H88.5385ZM88.5385 0.536585V1.19512H87.8799V0.536585H88.5385ZM87.2214 0.536585V1.19512H86.5629V0.536585H87.2214ZM86.5629 0.536585V1.19512H85.9043V0.536585H86.5629ZM86.5629 1.19512V1.85366H85.9043V1.19512H86.5629ZM87.2214 1.19512V1.85366H86.5629V1.19512H87.2214ZM87.2214 1.85366V2.5122H86.5629V1.85366H87.2214ZM87.2214 2.5122V3.17073H86.5629V2.5122H87.2214ZM87.2214 3.17073V3.82927H86.5629V3.17073H87.2214ZM87.2214 3.82927V4.48781H86.5629V3.82927H87.2214ZM87.2214 4.48781V5.14634H86.5629V4.48781H87.2214ZM87.2214 5.14634V5.80488H86.5629V5.14634H87.2214ZM86.5629 5.80488V6.46342H85.9043V5.80488H86.5629ZM86.5629 6.46342V7.12195H85.9043V6.46342H86.5629ZM86.5629 5.14634V5.80488H85.9043V5.14634H86.5629ZM86.5629 4.48781V5.14634H85.9043V4.48781H86.5629ZM86.5629 3.82927V4.48781H85.9043V3.82927H86.5629ZM86.5629 3.17073V3.82927H85.9043V3.17073H86.5629ZM86.5629 2.5122V3.17073H85.9043V2.5122H86.5629ZM86.5629 1.85366V2.5122H85.9043V1.85366H86.5629ZM87.2214 5.80488V6.46342H86.5629V5.80488H87.2214ZM87.2214 6.46342V7.12195H86.5629V6.46342H87.2214ZM87.2214 7.12195V7.78049H86.5629V7.12195H87.2214ZM87.2214 7.78049V8.43902H86.5629V7.78049H87.2214ZM87.2214 8.43902V9.09756H86.5629V8.43902H87.2214ZM87.2214 9.09756V9.7561H86.5629V9.09756H87.2214ZM87.2214 9.7561V10.4146H86.5629V9.7561H87.2214ZM87.2214 10.4146V11.0732H86.5629V10.4146H87.2214ZM87.2214 11.0732V11.7317H86.5629V11.0732H87.2214ZM87.8799 10.4146V11.0732H87.2214V10.4146H87.8799ZM87.8799 9.7561V10.4146H87.2214V9.7561H87.8799ZM89.197 8.43902V9.09756H88.5385V8.43902H89.197ZM89.8555 8.43902V9.09756H89.197V8.43902H89.8555ZM89.8555 9.09756V9.7561H89.197V9.09756H89.8555ZM89.197 9.09756V9.7561H88.5385V9.09756H89.197ZM89.197 7.12195V7.78049H88.5385V7.12195H89.197ZM89.8555 7.12195V7.78049H89.197V7.12195H89.8555ZM89.197 9.7561V10.4146H88.5385V9.7561H89.197ZM89.8555 9.7561V10.4146H89.197V9.7561H89.8555ZM89.8555 7.78049V8.43902H89.197V7.78049H89.8555ZM89.197 7.78049V8.43902H88.5385V7.78049H89.197ZM89.197 0.536585V1.19512H88.5385V0.536585H89.197ZM89.8555 0.536585V1.19512H89.197V0.536585H89.8555ZM89.8555 1.19512V1.85366H89.197V1.19512H89.8555ZM89.197 1.19512V1.85366H88.5385V1.19512H89.197ZM89.197 1.85366V2.5122H88.5385V1.85366H89.197ZM89.8555 1.85366V2.5122H89.197V1.85366H89.8555ZM89.8555 2.5122V3.17073H89.197V2.5122H89.8555ZM89.197 2.5122V3.17073H88.5385V2.5122H89.197ZM89.197 3.17073V3.82927H88.5385V3.17073H89.197ZM89.8555 3.17073V3.82927H89.197V3.17073H89.8555ZM89.197 16.3415V17H88.5385V16.3415H89.197ZM89.8555 16.3415V17H89.197V16.3415H89.8555ZM89.8555 15.6829V16.3415H89.197V15.6829H89.8555ZM89.8555 15.0244V15.6829H89.197V15.0244H89.8555ZM89.8555 14.3659V15.0244H89.197V14.3659H89.8555ZM89.8555 13.7073V14.3659H89.197V13.7073H89.8555ZM89.197 13.7073V14.3659H88.5385V13.7073H89.197ZM89.197 14.3659V15.0244H88.5385V14.3659H89.197ZM89.197 15.0244V15.6829H88.5385V15.0244H89.197ZM89.197 15.6829V16.3415H88.5385V15.6829H89.197ZM90.5141 7.12195V7.78049H89.8555V7.12195H90.5141ZM91.1726 7.12195V7.78049H90.5141V7.12195H91.1726ZM91.8311 7.12195V7.78049H91.1726V7.12195H91.8311ZM91.8311 3.17073V3.82927H91.1726V3.17073H91.8311ZM91.1726 3.17073V3.82927H90.5141V3.17073H91.1726ZM90.5141 3.17073V3.82927H89.8555V3.17073H90.5141ZM90.5141 0.536585V1.19512H89.8555V0.536585H90.5141ZM91.1726 0.536585V1.19512H90.5141V0.536585H91.1726ZM91.8311 0.536585V1.19512H91.1726V0.536585H91.8311ZM91.8311 2.5122V3.17073H91.1726V2.5122H91.8311ZM91.8311 1.85366V2.5122H91.1726V1.85366H91.8311ZM91.1726 1.85366V2.5122H90.5141V1.85366H91.1726ZM90.5141 1.85366V2.5122H89.8555V1.85366H90.5141ZM90.5141 1.19512V1.85366H89.8555V1.19512H90.5141ZM91.1726 1.19512V1.85366H90.5141V1.19512H91.1726ZM91.8311 1.19512V1.85366H91.1726V1.19512H91.8311ZM90.5141 2.5122V3.17073H89.8555V2.5122H90.5141ZM91.1726 2.5122V3.17073H90.5141V2.5122H91.1726ZM91.8311 8.43902V9.09756H91.1726V8.43902H91.8311ZM91.1726 8.43902V9.09756H90.5141V8.43902H91.1726ZM90.5141 8.43902V9.09756H89.8555V8.43902H90.5141ZM90.5141 7.78049V8.43902H89.8555V7.78049H90.5141ZM91.1726 7.78049V8.43902H90.5141V7.78049H91.1726ZM91.8311 7.78049V8.43902H91.1726V7.78049H91.8311ZM90.5141 9.09756V9.7561H89.8555V9.09756H90.5141ZM91.1726 9.09756V9.7561H90.5141V9.09756H91.1726ZM91.8311 9.09756V9.7561H91.1726V9.09756H91.8311ZM91.8311 9.7561V10.4146H91.1726V9.7561H91.8311ZM91.1726 9.7561V10.4146H90.5141V9.7561H91.1726ZM90.5141 9.7561V10.4146H89.8555V9.7561H90.5141ZM90.5141 13.7073V14.3659H89.8555V13.7073H90.5141ZM91.1726 13.7073V14.3659H90.5141V13.7073H91.1726ZM91.8311 13.7073V14.3659H91.1726V13.7073H91.8311ZM91.8311 15.6829V16.3415H91.1726V15.6829H91.8311ZM91.1726 16.3415V17H90.5141V16.3415H91.1726ZM90.5141 16.3415V17H89.8555V16.3415H90.5141ZM91.8311 16.3415V17H91.1726V16.3415H91.8311ZM91.1726 15.6829V16.3415H90.5141V15.6829H91.1726ZM90.5141 15.6829V16.3415H89.8555V15.6829H90.5141ZM90.5141 15.0244V15.6829H89.8555V15.0244H90.5141ZM91.1726 15.0244V15.6829H90.5141V15.0244H91.1726ZM91.8311 15.0244V15.6829H91.1726V15.0244H91.8311ZM91.8311 14.3659V15.0244H91.1726V14.3659H91.8311ZM91.1726 14.3659V15.0244H90.5141V14.3659H91.1726ZM90.5141 14.3659V15.0244H89.8555V14.3659H90.5141ZM95.7824 3.17073V3.82927H95.1238V3.17073H95.7824ZM95.7824 13.7073V14.3659H95.1238V13.7073H95.7824ZM92.4897 0.536585V1.19512H91.8311V0.536585H92.4897ZM93.1482 0.536585V1.19512H92.4897V0.536585H93.1482ZM93.8068 0.536585V1.19512H93.1482V0.536585H93.8068ZM94.4653 0.536585V1.19512H93.8068V0.536585H94.4653ZM95.1238 0.536585V1.19512H94.4653V0.536585H95.1238ZM95.1238 1.19512V1.85366H94.4653V1.19512H95.1238ZM95.7824 1.19512V1.85366H95.1238V1.19512H95.7824ZM95.7824 1.85366V2.5122H95.1238V1.85366H95.7824ZM95.7824 0.536585V1.19512H95.1238V0.536585H95.7824ZM95.7824 2.5122V3.17073H95.1238V2.5122H95.7824ZM95.1238 2.5122V3.17073H94.4653V2.5122H95.1238ZM94.4653 2.5122V3.17073H93.8068V2.5122H94.4653ZM93.8068 2.5122V3.17073H93.1482V2.5122H93.8068ZM93.1482 2.5122V3.17073H92.4897V2.5122H93.1482ZM92.4897 2.5122V3.17073H91.8311V2.5122H92.4897ZM92.4897 1.85366V2.5122H91.8311V1.85366H92.4897ZM92.4897 1.19512V1.85366H91.8311V1.19512H92.4897ZM93.1482 1.19512V1.85366H92.4897V1.19512H93.1482ZM93.8068 1.19512V1.85366H93.1482V1.19512H93.8068ZM94.4653 1.19512V1.85366H93.8068V1.19512H94.4653ZM94.4653 1.85366V2.5122H93.8068V1.85366H94.4653ZM95.1238 1.85366V2.5122H94.4653V1.85366H95.1238ZM93.8068 1.85366V2.5122H93.1482V1.85366H93.8068ZM93.1482 1.85366V2.5122H92.4897V1.85366H93.1482ZM92.4897 3.17073V3.82927H91.8311V3.17073H92.4897ZM93.1482 3.17073V3.82927H92.4897V3.17073H93.1482ZM93.8068 3.17073V3.82927H93.1482V3.17073H93.8068ZM94.4653 3.17073V3.82927H93.8068V3.17073H94.4653ZM95.1238 3.17073V3.82927H94.4653V3.17073H95.1238ZM95.7824 14.3659V15.0244H95.1238V14.3659H95.7824ZM95.1238 14.3659V15.0244H94.4653V14.3659H95.1238ZM95.1238 15.0244V15.6829H94.4653V15.0244H95.1238ZM95.1238 15.6829V16.3415H94.4653V15.6829H95.1238ZM95.1238 16.3415V17H94.4653V16.3415H95.1238ZM95.7824 15.6829V16.3415H95.1238V15.6829H95.7824ZM95.7824 15.0244V15.6829H95.1238V15.0244H95.7824ZM95.7824 16.3415V17H95.1238V16.3415H95.7824ZM92.4897 16.3415V17H91.8311V16.3415H92.4897ZM93.1482 16.3415V17H92.4897V16.3415H93.1482ZM93.8068 16.3415V17H93.1482V16.3415H93.8068ZM93.8068 15.6829V16.3415H93.1482V15.6829H93.8068ZM94.4653 16.3415V17H93.8068V16.3415H94.4653ZM94.4653 15.6829V16.3415H93.8068V15.6829H94.4653ZM94.4653 15.0244V15.6829H93.8068V15.0244H94.4653ZM94.4653 14.3659V15.0244H93.8068V14.3659H94.4653ZM94.4653 13.7073V14.3659H93.8068V13.7073H94.4653ZM95.1238 13.7073V14.3659H94.4653V13.7073H95.1238ZM92.4897 13.7073V14.3659H91.8311V13.7073H92.4897ZM93.1482 13.7073V14.3659H92.4897V13.7073H93.1482ZM93.8068 13.7073V14.3659H93.1482V13.7073H93.8068ZM93.8068 14.3659V15.0244H93.1482V14.3659H93.8068ZM93.8068 15.0244V15.6829H93.1482V15.0244H93.8068ZM93.1482 15.0244V15.6829H92.4897V15.0244H93.1482ZM93.1482 14.3659V15.0244H92.4897V14.3659H93.1482ZM92.4897 14.3659V15.0244H91.8311V14.3659H92.4897ZM92.4897 15.0244V15.6829H91.8311V15.0244H92.4897ZM92.4897 15.6829V16.3415H91.8311V15.6829H92.4897ZM93.1482 15.6829V16.3415H92.4897V15.6829H93.1482ZM92.4897 7.12195V7.78049H91.8311V7.12195H92.4897ZM92.4897 7.78049V8.43902H91.8311V7.78049H92.4897ZM92.4897 8.43902V9.09756H91.8311V8.43902H92.4897ZM92.4897 9.09756V9.7561H91.8311V9.09756H92.4897ZM93.1482 9.09756V9.7561H92.4897V9.09756H93.1482ZM93.1482 9.7561V10.4146H92.4897V9.7561H93.1482ZM92.4897 9.7561V10.4146H91.8311V9.7561H92.4897ZM93.1482 7.12195V7.78049H92.4897V7.12195H93.1482ZM93.1482 7.78049V8.43902H92.4897V7.78049H93.1482ZM93.1482 8.43902V9.09756H92.4897V8.43902H93.1482ZM93.8068 8.43902V9.09756H93.1482V8.43902H93.8068ZM94.4653 8.43902V9.09756H93.8068V8.43902H94.4653ZM94.4653 7.78049V8.43902H93.8068V7.78049H94.4653ZM94.4653 7.12195V7.78049H93.8068V7.12195H94.4653ZM93.8068 7.12195V7.78049H93.1482V7.12195H93.8068ZM93.8068 7.78049V8.43902H93.1482V7.78049H93.8068ZM93.8068 9.09756V9.7561H93.1482V9.09756H93.8068ZM93.8068 9.7561V10.4146H93.1482V9.7561H93.8068ZM94.4653 9.7561V10.4146H93.8068V9.7561H94.4653ZM94.4653 9.09756V9.7561H93.8068V9.09756H94.4653Z" fill="white"/>
</svg>
